<?xml version="1.0" encoding="UTF-8" standalone="no"?>
<!DOCTYPE svg PUBLIC "-//W3C//DTD SVG 1.1//EN" "http://www.w3.org/Graphics/SVG/1.1/DTD/svg11.dtd">
<svg xmlns="http://www.w3.org/2000/svg" version="1.1" viewBox="0.00 0.00 500.00 500.00">
<g stroke-width="2.00" fill="none" stroke-linecap="butt">
<path stroke="#feb1b6" vector-effect="non-scaling-stroke" d="
  M 406.39 110.24
  L 406.24 112.02
  Q 406.19 112.56 405.80 112.18
  L 405.45 111.82
  Q 404.92 111.30 404.25 111.60
  Q 402.62 112.33 400.81 111.93
  A 0.98 0.97 30.7 0 0 399.93 112.15
  Q 398.12 113.77 395.75 113.11
  Q 395.22 112.96 395.52 113.42
  L 395.83 113.91
  Q 396.13 114.37 395.59 114.37
  L 395.16 114.37"
/>
<path stroke="#fdb68f" vector-effect="non-scaling-stroke" d="
  M 395.16 114.37
  C 384.81 105.64 373.93 99.21 360.08 97.94"
/>
<path stroke="#ffc397" vector-effect="non-scaling-stroke" d="
  M 360.08 97.94
  Q 340.05 96.10 323.25 106.31"
/>
<path stroke="#feb1b6" vector-effect="non-scaling-stroke" d="
  M 323.25 106.31
  Q 318.82 107.41 316.93 112.25
  A 1.17 1.16 -82.1 0 1 315.96 112.99
  Q 312.86 113.33 310.06 111.94
  Q 309.74 111.78 309.46 112.00
  Q 308.50 112.76 307.06 111.93"
/>
<path stroke="#ffdbdc" vector-effect="non-scaling-stroke" d="
  M 307.06 111.93
  L 310.92 110.00
  Q 312.83 109.03 310.84 108.24
  C 304.52 105.74 299.96 105.33 298.72 97.34
  A 0.86 0.85 52.3 0 0 297.09 97.13
  L 294.11 104.06
  Q 293.92 104.50 293.47 104.68
  Q 289.20 106.42 284.79 107.77
  Q 284.46 107.88 284.19 108.13
  Q 283.82 108.48 283.66 108.61
  A 0.94 0.94 0.0 0 0 283.97 110.24
  Q 291.43 112.57 295.33 117.83"
/>
<path stroke="#feb1b6" vector-effect="non-scaling-stroke" d="
  M 295.33 117.83
  L 288.24 118.11
  Q 287.73 118.13 287.44 118.56
  C 284.94 122.39 279.16 122.02 275.40 121.76
  Q 274.86 121.73 274.37 121.94
  Q 270.49 123.63 266.33 122.52
  Q 265.86 122.40 265.39 122.55
  Q 261.12 124.00 256.92 122.35
  A 1.69 1.69 0.0 0 0 254.78 123.20
  Q 253.58 125.72 250.74 124.88
  Q 250.32 124.76 250.04 124.43
  Q 248.87 123.11 246.96 123.32
  A 0.94 0.94 0.0 0 1 246.16 123.01
  C 242.03 118.33 231.76 124.09 226.69 118.55
  A 1.98 1.93 77.5 0 0 225.88 118.02
  Q 221.58 116.60 218.07 113.83
  C 215.07 111.48 209.83 111.04 207.80 109.19
  C 204.53 106.22 196.60 100.72 192.06 103.81
  Q 189.79 105.36 188.37 103.31
  A 0.47 0.47 0.0 0 0 187.51 103.51
  L 187.36 104.61"
/>
<path stroke="#fed3d4" vector-effect="non-scaling-stroke" d="
  M 187.36 104.61
  Q 174.61 97.73 160.60 97.72"
/>
<path stroke="#ffdbdc" vector-effect="non-scaling-stroke" d="
  M 160.60 97.72
  C 140.34 97.05 122.27 104.70 108.19 119.63"
/>
<path stroke="#feb1b6" vector-effect="non-scaling-stroke" d="
  M 108.19 119.63
  Q 108.17 117.54 106.94 116.95
  A 1.03 1.03 0.0 0 0 106.00 116.99
  C 102.39 119.05 101.79 121.35 99.28 123.60
  A 0.78 0.77 35.7 0 1 98.45 123.73
  Q 96.42 122.84 95.28 124.66
  A 0.75 0.74 18.2 0 1 94.58 125.01
  Q 94.39 125.00 94.21 125.00
  Q 93.76 125.02 93.75 125.48
  Q 93.75 125.62 93.73 125.75
  Q 93.59 126.46 93.44 126.65
  Q 91.64 128.90 89.66 130.98
  C 87.13 133.63 82.83 134.63 80.68 137.42
  Q 76.17 143.27 69.59 149.15
  A 0.34 0.34 0.0 0 1 69.04 148.77
  Q 69.35 147.96 68.67 147.36
  A 0.49 0.49 0.0 0 1 68.64 146.65
  Q 70.89 144.24 69.59 141.45"
/>
<path stroke="#fda4ad" vector-effect="non-scaling-stroke" d="
  M 465.94 262.72
  Q 465.54 262.61 465.15 263.04
  Q 465.11 263.09 465.11 263.03
  L 464.74 255.83
  A 0.74 0.73 13.6 0 0 464.37 255.23
  Q 461.71 253.68 459.78 251.37
  A 0.74 0.73 -35.2 0 0 458.84 251.21
  Q 455.26 253.34 452.20 250.56
  A 0.90 0.89 -23.4 0 0 451.64 250.34
  L 437.83 250.00
  Q 437.37 249.98 437.13 249.58
  Q 435.93 247.53 436.93 245.39
  A 0.73 0.73 0.0 0 0 435.70 244.62
  C 432.41 248.71 427.93 244.56 425.43 241.09
  A 0.25 0.24 -39.4 0 0 425.06 241.06
  L 424.80 241.32
  Q 424.51 241.61 424.17 241.39
  Q 422.94 240.55 422.38 241.90
  Q 422.20 242.34 422.22 242.82
  Q 422.24 243.38 421.66 243.68
  Q 421.21 243.90 421.07 244.39
  Q 420.18 247.59 417.68 249.38"
/>
<path stroke="#fed6d9" vector-effect="non-scaling-stroke" d="
  M 417.68 249.38
  C 419.59 240.19 424.13 239.90 431.38 236.47
  A 0.78 0.78 0.0 0 0 431.36 235.05
  L 421.52 230.70
  A 1.50 1.49 -1.1 0 1 420.78 229.99
  L 416.76 221.84"
/>
<path stroke="#fda4ad" vector-effect="non-scaling-stroke" d="
  M 416.76 221.84
  Q 415.89 221.64 416.53 219.97
  C 417.21 218.21 419.68 217.08 419.63 215.26
  Q 419.35 206.25 421.50 197.59
  C 422.10 195.20 422.05 192.64 422.71 190.14
  Q 423.79 186.02 423.92 184.65
  Q 425.00 173.14 422.39 161.77
  Q 422.22 161.02 422.25 161.75
  Q 422.25 161.91 422.24 162.09
  A 0.15 0.15 0.0 0 1 421.94 162.10
  L 421.30 157.15
  A 0.95 0.95 0.0 0 0 420.68 156.37
  Q 419.47 155.95 419.37 154.76
  A 1.45 1.44 -27.5 0 0 416.82 153.96
  L 416.18 154.73"
/>
<path stroke="#fff8f7" vector-effect="non-scaling-stroke" d="
  M 160.60 97.72
  L 160.14 99.60
  Q 160.01 100.14 160.52 100.37
  C 163.85 101.85 167.16 103.26 169.80 105.72
  Q 179.10 114.39 181.67 127.24"
/>
<path stroke="#ffeaea" vector-effect="non-scaling-stroke" d="
  M 181.67 127.24
  C 167.46 133.00 167.17 153.43 182.64 157.15"
/>
<path stroke="#fff8f7" vector-effect="non-scaling-stroke" d="
  M 182.64 157.15
  Q 181.61 170.99 176.52 184.34"
/>
<path stroke="#ffeaea" vector-effect="non-scaling-stroke" d="
  M 176.52 184.34
  C 160.84 178.54 148.16 193.42 155.71 208.21"
/>
<path stroke="#ffdbdc" vector-effect="non-scaling-stroke" d="
  M 155.71 208.21
  Q 157.77 213.00 164.85 215.58"
/>
<path stroke="#fff8f7" vector-effect="non-scaling-stroke" d="
  M 164.85 215.58
  C 158.12 222.89 152.16 226.09 144.55 230.61"
/>
<path stroke="#feced4" vector-effect="non-scaling-stroke" d="
  M 144.55 230.61
  Q 111.82 223.85 95.63 193.63"
/>
<path stroke="#fed6d9" vector-effect="non-scaling-stroke" d="
  M 95.63 193.63
  C 84.52 167.81 89.18 140.09 108.19 119.63"
/>
<path stroke="#fec36d" vector-effect="non-scaling-stroke" d="
  M 360.08 97.94
  L 360.93 103.28
  Q 361.01 103.77 361.49 103.89
  C 385.14 109.77 403.75 127.08 407.83 151.30
  Q 414.18 189.09 381.20 211.40
  Q 371.84 217.74 361.13 218.83
  A 0.94 0.94 0.0 0 1 360.22 217.42
  C 363.30 212.03 361.06 199.40 359.16 193.53"
/>
<path stroke="#febe94" vector-effect="non-scaling-stroke" d="
  M 359.16 193.53
  Q 367.19 185.58 370.20 175.26"
/>
<path stroke="#feb68f" vector-effect="non-scaling-stroke" d="
  M 370.20 175.26
  Q 376.83 174.33 378.51 168.26
  A 1.58 1.58 0.0 0 0 377.14 166.27
  L 371.09 165.67"
/>
<path stroke="#febe94" vector-effect="non-scaling-stroke" d="
  M 371.09 165.67
  C 372.82 143.62 361.23 123.63 340.19 115.97
  C 335.32 114.20 329.21 113.88 323.76 113.26
  A 1.31 1.24 -15.7 0 1 322.93 112.82
  Q 320.90 110.38 323.25 106.31"
/>
<path stroke="#fda4ad" vector-effect="non-scaling-stroke" d="
  M 95.63 193.63
  Q 93.36 191.69 93.81 196.52
  A 0.68 0.64 57.3 0 1 93.75 196.84
  L 92.26 200.09
  A 0.99 0.97 -42.2 0 0 92.22 200.78
  L 96.79 215.51
  A 0.15 0.15 0.0 0 1 96.54 215.66
  L 96.25 215.38
  Q 96.13 215.25 96.07 215.42
  L 95.16 218.17
  Q 95.04 218.56 95.39 218.76
  C 96.73 219.50 99.11 221.92 97.99 223.54
  Q 97.76 223.88 97.73 224.28
  L 97.45 227.13
  A 1.05 1.05 0.0 0 0 97.72 227.93
  C 99.30 229.70 102.37 231.19 100.82 234.12
  Q 98.21 239.06 94.83 237.42"
/>
<path stroke="#fed6d9" vector-effect="non-scaling-stroke" d="
  M 94.83 237.42
  L 95.88 236.45
  A 0.54 0.53 -53.2 0 0 95.76 235.58
  Q 91.73 233.57 89.70 229.57
  A 0.81 0.81 0.0 0 0 88.25 229.58
  Q 86.85 232.50 85.24 233.37"
/>
<path stroke="#fda4ad" vector-effect="non-scaling-stroke" d="
  M 85.24 233.37
  Q 81.84 234.06 79.74 231.87
  A 0.77 0.77 0.0 0 0 79.22 231.62
  L 72.26 231.03
  Q 71.78 230.99 71.36 231.22
  Q 67.35 233.40 62.83 234.26
  Q 62.37 234.35 62.07 233.99
  L 60.98 232.67
  Q 60.65 232.27 60.15 232.34
  Q 55.18 232.98 50.27 234.07
  C 45.65 235.09 45.12 239.76 41.36 240.96
  Q 39.99 241.39 38.53 241.64
  Q 38.36 241.66 38.28 241.52
  L 38.11 241.24
  Q 37.81 240.73 37.58 241.27
  Q 37.51 241.42 37.45 241.58
  Q 37.36 241.82 37.32 241.56
  L 37.05 239.53
  Q 36.99 239.08 36.83 239.50
  Q 36.77 239.67 36.74 239.76
  Q 36.56 240.29 36.51 239.73
  L 36.16 235.76"
/>
<path stroke="#feced0" vector-effect="non-scaling-stroke" d="
  M 187.36 104.61
  C 210.68 116.40 221.91 136.44 222.64 162.30"
/>
<path stroke="#a8a4b3" vector-effect="non-scaling-stroke" d="
  M 222.64 162.30
  C 218.27 162.84 203.47 166.80 205.88 172.75"
/>
<path stroke="#fec6cb" vector-effect="non-scaling-stroke" d="
  M 205.88 172.75
  C 191.27 184.38 194.15 202.81 196.28 219.05
  Q 196.34 219.56 195.93 219.86
  Q 173.18 236.37 144.55 230.61"
/>
<path stroke="#fed3d4" vector-effect="non-scaling-stroke" d="
  M 164.85 215.58
  Q 171.04 216.99 176.18 214.41
  C 189.45 207.76 188.75 191.61 176.31 184.33"
/>
<path stroke="#fee3e2" vector-effect="non-scaling-stroke" d="
  M 176.31 184.33
  Q 176.42 184.33 176.52 184.34"
/>
<path stroke="#fee3e2" vector-effect="non-scaling-stroke" d="
  M 182.64 157.15
  Q 182.30 156.95 183.28 156.98"
/>
<path stroke="#fed3d4" vector-effect="non-scaling-stroke" d="
  M 183.28 156.98
  C 208.22 161.54 205.65 121.35 182.08 127.22"
/>
<path stroke="#fee3e2" vector-effect="non-scaling-stroke" d="
  M 182.08 127.22
  Q 181.91 127.30 181.67 127.24"
/>
<path stroke="#fdb18b" vector-effect="non-scaling-stroke" d="
  M 395.16 114.37
  C 406.61 123.89 413.64 140.46 416.18 154.73"
/>
<path stroke="#fda986" vector-effect="non-scaling-stroke" d="
  M 416.18 154.73
  C 419.55 189.40 394.41 221.82 359.27 225.27
  Q 357.49 225.44 354.03 224.98"
/>
<path stroke="#fca080" vector-effect="non-scaling-stroke" d="
  M 354.03 224.98
  Q 354.68 215.94 355.32 206.98
  C 355.60 203.23 355.22 199.05 355.48 195.03"
/>
<path stroke="#fdb18b" vector-effect="non-scaling-stroke" d="
  M 355.48 195.03
  Q 357.64 195.24 359.16 193.53"
/>
<path stroke="#fed6d9" vector-effect="non-scaling-stroke" d="
  M 307.06 111.93
  C 301.06 113.86 300.22 117.55 298.52 122.48
  A 0.70 0.70 0.0 0 1 297.20 122.51
  L 295.33 117.83"
/>
<path stroke="#fda4ad" vector-effect="non-scaling-stroke" d="
  M 371.09 165.67
  L 367.85 166.30
  Q 365.69 166.73 366.18 168.88
  Q 367.12 173.02 370.20 175.26"
/>
<path stroke="#fc9ba7" vector-effect="non-scaling-stroke" d="
  M 355.48 195.03
  C 353.23 185.67 351.24 179.25 343.58 173.20"
/>
<path stroke="#a78295" vector-effect="non-scaling-stroke" d="
  M 343.58 173.20
  Q 344.07 169.48 341.48 167.78
  Q 325.51 157.26 308.14 166.75
  Q 307.71 166.98 307.32 166.70
  C 287.65 152.68 260.91 154.05 241.14 166.72
  Q 240.71 166.99 240.28 166.73
  Q 232.12 161.72 222.64 162.30"
/>
<path stroke="#feced4" vector-effect="non-scaling-stroke" d="
  M 416.76 221.84
  C 415.33 224.57 413.47 230.47 410.69 231.43
  Q 406.52 232.88 402.01 235.00
  A 0.77 0.76 46.9 0 0 401.97 236.36
  C 409.19 240.33 413.57 239.95 415.80 249.43
  A 0.62 0.62 0.0 0 0 416.94 249.59
  Q 417.20 249.14 417.68 249.38"
/>
<path stroke="#fc93a2" vector-effect="non-scaling-stroke" d="
  M 453.22 326.94
  Q 452.33 324.71 453.94 321.36
  Q 454.19 320.85 453.75 320.50
  Q 448.59 316.33 442.11 315.78
  C 437.69 315.40 434.96 314.49 431.22 313.28
  A 3.08 3.05 -89.7 0 1 429.25 311.27
  Q 427.76 306.44 423.45 303.80
  A 1.66 1.60 6.8 0 1 422.78 302.98
  C 422.06 300.93 421.66 298.27 419.43 297.35
  Q 418.89 297.13 418.87 296.54
  L 418.69 290.21
  A 0.63 0.63 0.0 0 0 418.43 289.72
  L 416.91 288.56
  Q 416.50 288.25 416.50 288.77
  L 416.50 289.36
  Q 416.50 290.07 415.88 289.74
  L 412.22 287.80
  Q 411.68 287.52 411.89 286.95
  C 412.72 284.60 411.73 282.65 411.78 280.66
  Q 411.95 274.94 411.79 269.21
  C 411.65 264.06 412.38 260.87 406.82 259.96"
/>
<path stroke="#a77a90" vector-effect="non-scaling-stroke" d="
  M 406.82 259.96
  C 404.60 246.43 391.65 242.67 379.68 245.14
  C 371.95 246.74 371.19 259.75 378.66 261.54
  Q 379.25 261.68 379.33 262.29
  Q 380.49 271.50 377.07 279.44
  C 373.73 287.19 370.85 295.15 367.94 303.07
  Q 367.48 304.35 367.36 305.50
  C 366.43 314.56 366.99 324.20 366.96 333.24
  A 0.51 0.51 0.0 0 1 366.24 333.71
  C 357.10 329.65 345.86 333.69 340.93 342.23
  Q 340.56 342.88 339.00 342.95
  Q 334.04 343.18 329.00 342.92
  A 0.59 0.59 0.0 0 1 328.45 342.26
  Q 328.89 338.91 327.26 336.01
  A 0.89 0.89 0.0 0 1 327.30 335.06
  Q 331.11 329.62 329.69 323.01
  Q 329.57 322.46 330.01 322.10
  Q 334.02 318.87 334.49 314.21
  Q 335.53 303.89 325.73 300.87"
/>
<path stroke="#fea9b1" vector-effect="non-scaling-stroke" d="
  M 325.73 300.87
  Q 328.73 289.79 319.67 279.68"
/>
<path stroke="#a77a90" vector-effect="non-scaling-stroke" d="
  M 319.67 279.68
  C 330.50 283.34 344.22 283.33 352.42 274.16
  Q 352.76 273.78 352.75 273.27
  L 352.71 271.53"
/>
<path stroke="#fc93a2" vector-effect="non-scaling-stroke" d="
  M 352.71 271.53
  Q 367.69 250.86 354.54 229.69
  Q 353.74 228.41 354.03 224.98"
/>
<path stroke="#fec6c7" vector-effect="non-scaling-stroke" d="
  M 176.31 184.33
  Q 169.49 199.37 155.71 208.21"
/>
<path stroke="#feb9bf" vector-effect="non-scaling-stroke" d="
  M 217.65 225.62
  Q 216.71 230.28 217.90 234.52"
/>
<path stroke="#a77a90" vector-effect="non-scaling-stroke" d="
  M 217.90 234.52
  Q 215.72 241.03 221.75 244.55
  A 1.43 1.36 59.7 0 0 222.41 244.74
  L 225.10 244.77
  Q 225.62 244.77 225.87 245.22
  Q 231.41 255.20 240.74 261.73
  A 0.60 0.59 31.3 0 1 240.93 262.49
  C 238.15 268.04 231.11 272.37 225.51 274.46
  Q 210.51 280.05 199.74 268.79
  Q 199.33 268.37 198.79 268.57
  Q 197.07 269.22 196.09 270.87
  A 0.47 0.47 0.0 0 1 195.22 270.72
  C 193.64 262.91 190.90 258.80 182.24 258.78
  Q 140.78 258.70 99.31 258.87
  Q 91.65 258.91 89.01 266.24
  C 86.06 274.42 82.70 281.94 82.72 289.99
  Q 82.78 312.85 82.75 335.71
  C 82.75 338.23 83.19 340.31 83.95 342.64
  Q 84.15 343.25 83.51 343.25
  L 69.01 343.25
  A 1.38 1.37 7.4 0 0 67.68 344.27
  C 66.26 349.49 71.46 348.56 74.39 348.45"
/>
<path stroke="#fc93a2" vector-effect="non-scaling-stroke" d="
  M 74.39 348.45
  C 71.26 354.76 74.04 356.38 79.86 356.49
  Q 90.92 356.68 101.78 355.99
  A 0.75 0.75 0.0 0 1 102.56 356.90
  C 101.64 361.14 99.09 368.49 93.67 368.12
  C 90.26 367.89 81.87 368.09 79.15 371.11
  C 77.70 372.72 76.65 373.06 74.83 373.82
  A 0.35 0.35 0.0 0 0 74.89 374.49
  L 75.52 374.61
  A 0.19 0.19 0.0 0 1 75.46 374.99
  Q 74.48 374.91 73.84 375.35"
/>
<path stroke="#feced4" vector-effect="non-scaling-stroke" d="
  M 85.24 233.37
  L 81.55 235.68
  A 0.68 0.68 0.0 0 0 81.67 236.89
  Q 86.07 238.62 88.12 242.90
  A 0.95 0.95 0.0 0 0 89.84 242.87
  Q 91.65 238.77 94.83 237.42"
/>
<path stroke="#fec6c7" vector-effect="non-scaling-stroke" d="
  M 183.28 156.98
  Q 182.88 152.48 183.50 145.50
  Q 184.20 137.59 182.08 127.22"
/>
<path stroke="#a6718a" vector-effect="non-scaling-stroke" d="
  M 343.58 173.20
  Q 342.38 174.89 339.99 174.75"
/>
<path stroke="#a77a90" vector-effect="non-scaling-stroke" d="
  M 339.99 174.75
  Q 329.17 165.13 314.62 169.94
  Q 312.75 170.56 314.19 171.91
  L 319.02 176.45"
/>
<path stroke="#a6718a" vector-effect="non-scaling-stroke" d="
  M 319.02 176.45
  Q 335.58 198.83 331.07 224.73"
/>
<path stroke="#a896a6" vector-effect="non-scaling-stroke" d="
  M 331.07 224.73
  Q 329.49 222.77 326.53 221.64"
/>
<path stroke="#a6718a" vector-effect="non-scaling-stroke" d="
  M 326.53 221.64
  Q 325.93 220.52 326.06 219.06
  Q 327.07 207.75 323.83 198.06"
/>
<path stroke="#a77a90" vector-effect="non-scaling-stroke" d="
  M 323.83 198.06
  C 320.32 184.20 308.55 172.09 295.71 166.79
  C 262.70 153.16 221.87 174.56 221.63 212.98
  Q 221.60 217.36 221.92 221.79"
/>
<path stroke="#a896a6" vector-effect="non-scaling-stroke" d="
  M 221.92 221.79
  Q 219.14 222.63 217.65 225.62"
/>
<path stroke="#a77a90" vector-effect="non-scaling-stroke" d="
  M 217.65 225.62
  C 214.85 210.66 216.85 194.64 225.24 182.23
  C 227.78 178.47 231.58 175.14 234.79 171.60
  A 0.58 0.58 0.0 0 0 234.59 170.68
  Q 220.78 164.66 209.57 174.20
  Q 209.17 174.54 208.64 174.52
  Q 206.78 174.44 205.88 172.75"
/>
<path stroke="#a6718a" vector-effect="non-scaling-stroke" d="
  M 352.71 271.53
  Q 351.31 268.95 349.23 268.78
  A 1.17 1.17 0.0 0 0 348.38 269.05
  L 341.41 274.76"
/>
<path stroke="#fc93a2" vector-effect="non-scaling-stroke" d="
  M 341.41 274.76
  Q 340.11 272.50 341.24 271.51
  C 350.82 263.15 355.19 249.02 347.53 238.25
  A 0.37 0.37 0.0 0 0 346.86 238.47
  L 346.98 244.87
  Q 346.99 245.44 346.42 245.51
  Q 345.32 245.65 344.97 244.55
  A 0.47 0.47 0.0 0 0 344.05 244.65
  C 343.02 254.72 337.73 259.49 330.47 265.48
  C 327.21 268.18 328.70 272.49 329.81 276.28"
/>
<path stroke="#a6718a" vector-effect="non-scaling-stroke" d="
  M 329.81 276.28
  Q 316.81 273.57 308.43 262.59
  A 0.82 0.81 -34.2 0 1 308.66 261.40
  Q 318.19 255.60 323.08 245.57
  Q 323.29 245.13 323.78 245.08
  Q 335.83 243.88 331.86 234.33"
/>
<path stroke="#fdb0b9" vector-effect="non-scaling-stroke" d="
  M 331.86 234.33
  Q 333.95 228.72 331.07 224.73"
/>
<path stroke="#fdbdc5" vector-effect="non-scaling-stroke" d="
  M 97.17 348.18
  L 113.93 348.10"
/>
<path stroke="#a77a90" vector-effect="non-scaling-stroke" d="
  M 329.81 276.28
  Q 335.85 276.66 341.41 274.76"
/>
<path stroke="#a88798" vector-effect="non-scaling-stroke" d="
  M 319.67 279.68
  Q 310.34 274.63 303.12 265.90
  Q 302.80 265.51 302.34 265.71
  L 293.41 269.64
  A 0.74 0.73 -15.4 0 0 292.98 270.39
  C 293.91 277.93 289.41 283.87 282.89 286.64
  C 272.07 291.24 260.96 286.79 256.56 275.56"
/>
<path stroke="#a896a6" vector-effect="non-scaling-stroke" d="
  M 256.56 275.56
  L 255.98 269.95
  Q 255.93 269.48 255.50 269.30
  L 247.28 265.70
  Q 246.56 265.39 246.06 265.99
  Q 238.82 274.59 229.21 279.98"
/>
<path stroke="#a77a90" vector-effect="non-scaling-stroke" d="
  M 229.21 279.98
  C 219.65 282.97 206.77 283.32 198.71 276.31
  A 0.96 0.95 -73.6 0 0 197.14 277.17
  C 197.74 281.29 198.24 285.05 198.25 289.30
  Q 198.27 313.37 198.23 337.44
  Q 198.22 338.92 197.10 343.22
  Q 196.96 343.77 197.53 343.76
  C 209.10 343.54 218.93 342.28 227.48 346.91
  Q 228.19 347.29 228.11 346.49
  C 227.50 340.64 225.24 333.68 228.82 326.95
  A 1.01 1.00 -45.9 0 0 228.81 326.00
  Q 226.00 320.94 225.57 318.97
  Q 224.57 314.29 226.98 309.83"
/>
<path stroke="#a896a6" vector-effect="non-scaling-stroke" d="
  M 226.98 309.83
  Q 230.72 304.56 236.62 303.36
  A 0.47 0.47 0.0 0 0 236.98 302.76
  C 234.21 293.35 241.88 281.68 248.19 275.26
  Q 248.56 274.89 249.05 275.06
  Q 250.90 275.69 251.40 278.14"
/>
<path stroke="#a88798" vector-effect="non-scaling-stroke" d="
  M 251.40 278.14
  C 247.70 284.80 239.99 293.82 242.27 301.83
  Q 242.38 302.22 242.78 302.26
  L 251.90 303.36
  A 0.58 0.55 -52.8 0 0 252.21 303.31
  Q 258.96 299.92 261.56 299.55
  C 268.34 298.60 277.28 301.16 280.17 308.07
  A 0.55 0.55 0.0 0 0 281.15 308.13
  Q 281.26 307.94 281.40 307.54
  C 282.00 305.85 281.65 302.35 282.24 300.14
  C 283.29 296.15 282.26 292.13 284.47 288.51
  Q 289.33 280.59 299.36 283.36
  Q 300.00 283.53 299.70 282.94
  C 298.66 280.91 296.19 277.89 299.06 275.90
  A 1.76 1.76 0.0 0 1 301.51 276.37
  L 305.23 281.92"
/>
<path stroke="#a896a6" vector-effect="non-scaling-stroke" d="
  M 305.23 281.92
  C 308.54 288.66 310.05 293.89 315.81 295.14"
/>
<path stroke="#a88798" vector-effect="non-scaling-stroke" d="
  M 315.81 295.14
  L 325.73 300.87"
/>
<path stroke="#a6718a" vector-effect="non-scaling-stroke" d="
  M 406.82 259.96
  C 407.40 264.00 406.93 266.07 405.36 269.81
  C 403.34 274.64 412.36 296.11 414.32 301.95
  Q 415.46 305.34 415.56 308.83
  Q 415.90 321.07 415.63 333.32
  Q 415.50 339.13 414.10 342.66
  Q 414.00 342.91 414.27 342.92
  L 431.92 343.24
  A 1.23 1.22 79.7 0 1 433.05 344.03
  C 434.37 347.45 432.05 348.51 429.10 348.51
  Q 404.29 348.49 379.66 348.51
  A 0.89 0.88 -0.9 0 0 378.77 349.42
  L 379.08 360.60
  A 0.65 0.65 0.0 0 0 379.55 361.20
  Q 387.61 363.39 390.04 370.25
  Q 392.12 376.16 394.20 389.22
  C 395.72 398.85 394.19 407.73 382.50 407.74
  Q 356.87 407.77 331.26 407.63
  C 314.45 407.53 322.37 382.75 324.70 374.45
  C 326.73 367.20 329.41 363.01 336.66 361.24
  A 0.69 0.68 -6.7 0 0 337.18 360.59
  L 337.42 348.96
  Q 337.43 348.50 336.97 348.50
  L 327.81 348.50
  Q 327.28 348.50 327.16 349.02
  C 323.43 365.08 319.63 381.69 315.01 397.70
  C 312.81 405.31 306.87 407.68 299.50 407.72
  Q 274.97 407.85 250.43 407.64
  Q 241.91 407.57 237.90 401.47
  Q 237.60 401.02 237.26 401.44
  Q 232.21 407.69 224.94 407.71
  Q 172.94 407.81 120.96 407.71
  C 113.96 407.70 108.93 407.10 104.60 402.19
  C 97.09 393.68 100.12 382.06 101.48 372.30
  Q 103.49 357.87 113.93 348.10"
/>
<path stroke="#a8a4b3" vector-effect="non-scaling-stroke" d="
  M 113.93 348.10
  Q 120.64 343.74 128.50 343.74
  Q 153.55 343.75 178.43 343.75"
/>
<path stroke="#a896a6" vector-effect="non-scaling-stroke" d="
  M 178.43 343.75
  C 185.09 343.79 193.27 346.09 193.26 336.00
  Q 193.23 313.75 193.27 291.47
  C 193.28 284.09 191.46 277.89 189.30 271.10"
/>
<path stroke="#a8abbb" vector-effect="non-scaling-stroke" d="
  M 189.30 271.10
  C 188.77 266.69 187.16 263.98 182.39 263.98
  Q 140.16 264.01 98.89 264.00
  A 5.03 5.02 -81.7 0 0 94.06 267.60
  L 88.32 287.00"
/>
<path stroke="#a896a6" vector-effect="non-scaling-stroke" d="
  M 88.32 287.00
  L 88.49 295.09"
/>
<path stroke="#a8a4b3" vector-effect="non-scaling-stroke" d="
  M 88.49 295.09
  Q 88.51 313.95 88.49 333.02
  C 88.48 340.54 90.22 345.38 97.17 348.18"
/>
<path stroke="#a6718a" vector-effect="non-scaling-stroke" d="
  M 97.17 348.18
  L 74.39 348.45"
/>
<path stroke="#fec6c7" vector-effect="non-scaling-stroke" d="
  M 315.81 295.14
  Q 314.58 284.24 305.23 281.92"
/>
<path stroke="#a896a6" vector-effect="non-scaling-stroke" d="
  M 221.70 238.16
  L 217.90 234.52"
/>
<path stroke="#a896a6" vector-effect="non-scaling-stroke" d="
  M 331.86 234.33
  Q 327.73 240.26 322.13 238.87
  A 1.58 1.58 0.0 0 0 320.37 239.63
  Q 305.70 265.74 275.25 266.69
  Q 267.22 266.93 258.87 263.99"
/>
<path stroke="#fc93a2" vector-effect="non-scaling-stroke" d="
  M 323.83 198.06
  L 322.93 198.68
  A 0.90 0.89 70.9 0 0 322.54 199.49
  Q 323.40 211.32 321.32 223.23"
/>
<path stroke="#feb9bf" vector-effect="non-scaling-stroke" d="
  M 321.32 223.23
  Q 319.96 222.71 320.13 222.38"
/>
<path stroke="#feced4" vector-effect="non-scaling-stroke" d="
  M 320.13 222.38
  C 307.69 215.66 303.16 207.52 297.88 194.58
  Q 297.60 193.90 297.17 194.50
  C 279.71 218.65 251.96 224.03 223.35 224.30"
/>
<path stroke="#feb9bf" vector-effect="non-scaling-stroke" d="
  M 223.35 224.30
  Q 222.15 223.08 221.92 221.79"
/>
<path stroke="#fc93a2" vector-effect="non-scaling-stroke" d="
  M 339.99 174.75
  C 344.99 180.85 345.39 189.21 345.19 196.77
  A 0.47 0.47 0.0 0 1 344.30 196.97
  Q 342.34 193.01 339.63 189.16
  Q 331.78 177.97 319.02 176.45"
/>
<path stroke="#fdb0b9" vector-effect="non-scaling-stroke" d="
  M 326.53 221.64
  Q 326.87 224.27 326.17 225.78
  Q 325.92 226.31 325.37 226.10
  Q 322.56 225.02 321.32 223.23"
/>
<path stroke="#fee3e2" vector-effect="non-scaling-stroke" d="
  M 178.43 343.75
  C 186.70 333.87 185.78 323.77 185.52 309.42
  C 185.44 304.90 186.73 300.53 187.19 295.84
  Q 187.25 295.25 186.66 295.25
  L 88.49 295.09"
/>
<path stroke="#ffeaea" vector-effect="non-scaling-stroke" d="
  M 189.30 271.10
  C 187.10 275.93 190.12 280.87 188.80 284.93
  Q 188.61 285.53 188.94 285.89
  A 0.65 0.65 0.0 0 1 188.46 286.99
  L 88.32 287.00"
/>
<path stroke="#fec6c7" vector-effect="non-scaling-stroke" d="
  M 256.56 275.56
  Q 253.27 275.01 251.40 278.14"
/>
<path stroke="#feb9bf" vector-effect="non-scaling-stroke" d="
  M 226.98 309.83
  Q 218.24 299.94 223.11 288.39
  C 224.40 285.32 227.00 282.64 229.21 279.98"
/>
<path stroke="#ffeaea" vector-effect="non-scaling-stroke" d="
  M 320.13 222.38
  L 319.33 223.77
  A 1.05 0.98 64.7 0 0 319.19 224.21
  C 316.87 255.08 287.52 266.62 260.70 262.39
  Q 260.22 262.32 259.92 262.69
  L 258.87 263.99"
/>
<path stroke="#a8abbb" vector-effect="non-scaling-stroke" d="
  M 258.87 263.99
  Q 238.77 258.36 229.46 239.41
  Q 229.20 238.87 228.61 238.96
  Q 224.34 239.62 221.70 238.16"
/>
<path stroke="#ffeaea" vector-effect="non-scaling-stroke" d="
  M 221.70 238.16
  Q 220.28 232.55 220.29 227.24
  C 220.30 225.05 221.41 224.50 223.35 224.30"
/>
<path stroke="#fec6c7" vector-effect="non-scaling-stroke" d="
  M 253.46 93.79
  Q 250.12 91.88 248.17 88.52
  A 0.81 0.81 0.0 0 0 246.76 88.55
  Q 245.03 91.78 241.84 93.58
  A 0.53 0.53 0.0 0 0 241.68 94.37
  C 243.54 96.81 245.50 97.33 246.60 100.71
  A 0.79 0.79 0.0 0 0 248.07 100.78
  Q 249.77 96.94 253.44 94.99
  A 0.69 0.68 -44.3 0 0 253.46 93.79"
/>
<path stroke="#ffeaea" vector-effect="non-scaling-stroke" d="
  M 134.1361 135.3200
  A 9.21 8.99 89.9 0 0 143.1100 126.0943
  A 9.21 8.99 89.9 0 0 134.1039 116.9000
  A 9.21 8.99 89.9 0 0 125.1300 126.1257
  A 9.21 8.99 89.9 0 0 134.1361 135.3200"
/>
<path stroke="#ffeaea" vector-effect="non-scaling-stroke" d="
  M 131.61 172.74
  A 15.02 15.02 0.0 0 0 116.59 157.72
  A 15.02 15.02 0.0 0 0 101.57 172.74
  A 15.02 15.02 0.0 0 0 116.59 187.76
  A 15.02 15.02 0.0 0 0 131.61 172.74"
/>
<path stroke="#a89376" vector-effect="non-scaling-stroke" d="
  M 385.75 148.61
  A 5.73 5.73 0.0 0 0 380.02 142.88
  A 5.73 5.73 0.0 0 0 374.29 148.61
  A 5.73 5.73 0.0 0 0 380.02 154.34
  A 5.73 5.73 0.0 0 0 385.75 148.61"
/>
<path stroke="#feb68f" vector-effect="non-scaling-stroke" d="
  M 392.21 156.53
  A 3.55 3.55 0.0 0 0 388.66 152.98
  A 3.55 3.55 0.0 0 0 385.11 156.53
  A 3.55 3.55 0.0 0 0 388.66 160.08
  A 3.55 3.55 0.0 0 0 392.21 156.53"
/>
<path stroke="#a8abbb" vector-effect="non-scaling-stroke" d="
  M 258.30 230.94
  A 5.71 5.71 0.0 0 0 252.59 225.23
  A 5.71 5.71 0.0 0 0 246.88 230.94
  A 5.71 5.71 0.0 0 0 252.59 236.65
  A 5.71 5.71 0.0 0 0 258.30 230.94"
/>
<path stroke="#a8abbb" vector-effect="non-scaling-stroke" d="
  M 303.31 230.93
  A 5.69 5.69 0.0 0 0 297.62 225.24
  A 5.69 5.69 0.0 0 0 291.93 230.93
  A 5.69 5.69 0.0 0 0 297.62 236.62
  A 5.69 5.69 0.0 0 0 303.31 230.93"
/>
<path stroke="#feced4" vector-effect="non-scaling-stroke" d="
  M 249.07 242.03
  A 4.95 4.95 0.0 0 0 244.12 237.08
  A 4.95 4.95 0.0 0 0 239.17 242.03
  A 4.95 4.95 0.0 0 0 244.12 246.98
  A 4.95 4.95 0.0 0 0 249.07 242.03"
/>
<path stroke="#feced4" vector-effect="non-scaling-stroke" d="
  M 310.78 242.13
  A 4.94 4.94 0.0 0 0 305.84 237.19
  A 4.94 4.94 0.0 0 0 300.90 242.13
  A 4.94 4.94 0.0 0 0 305.84 247.07
  A 4.94 4.94 0.0 0 0 310.78 242.13"
/>
<path stroke="#feced4" vector-effect="non-scaling-stroke" d="
  M 281.76 240.01
  L 268.32 240.01
  A 0.78 0.78 0.0 0 0 267.54 240.79
  L 267.54 241.80
  A 7.65 7.40 90.0 0 0 274.94 249.45
  L 275.14 249.45
  A 7.65 7.40 -90.0 0 0 282.54 241.80
  L 282.54 240.79
  A 0.78 0.78 0.0 0 0 281.76 240.01"
/>
<path stroke="#a8abbb" vector-effect="non-scaling-stroke" d="
  M 384.23 251.07
  L 380.43 251.04
  Q 379.75 251.03 379.75 251.71
  L 379.75 255.80
  A 0.62 0.62 0.0 0 0 380.36 256.42
  L 384.50 256.47"
/>
<path stroke="#a77a90" vector-effect="non-scaling-stroke" d="
  M 384.50 256.47
  L 398.44 256.48
  A 0.56 0.55 -20.0 0 0 398.87 255.57
  Q 393.47 249.17 384.23 251.07"
/>
<path stroke="#feced4" vector-effect="non-scaling-stroke" d="
  M 384.50 256.47
  L 384.23 251.07"
/>
<path stroke="#868ba4" vector-effect="non-scaling-stroke" d="
  M 385.33 270.57
  Q 385.03 276.26 382.06 281.98"
/>
<path stroke="#a8abbb" vector-effect="non-scaling-stroke" d="
  M 382.06 281.98
  Q 378.24 291.91 374.45 302.04
  C 372.60 306.97 372.93 311.17 372.84 316.31"
/>
<path stroke="#868ba4" vector-effect="non-scaling-stroke" d="
  M 372.84 316.31
  Q 372.71 324.89 372.72 333.61
  C 372.73 337.79 374.19 340.23 377.21 342.71
  Q 377.60 343.04 378.11 343.05
  Q 389.02 343.41 399.97 343.21
  C 404.72 343.12 408.94 343.15 409.68 337.92
  Q 410.44 332.52 409.87 316.27"
/>
<path stroke="#a8abbb" vector-effect="non-scaling-stroke" d="
  M 409.87 316.27
  Q 410.25 313.06 409.92 309.07
  Q 409.66 305.96 408.41 302.08
  Q 405.14 291.87 401.70 282.07"
/>
<path stroke="#868ba4" vector-effect="non-scaling-stroke" d="
  M 401.70 282.07
  Q 399.18 276.81 398.54 270.87"
/>
<path stroke="#a6718a" vector-effect="non-scaling-stroke" d="
  M 398.54 270.87
  Q 401.15 266.71 401.32 262.34
  Q 401.34 261.77 400.77 261.77
  L 393.95 261.77"
/>
<path stroke="#a77a90" vector-effect="non-scaling-stroke" d="
  M 393.95 261.77
  L 385.81 261.76
  A 0.54 0.53 -0.5 0 0 385.27 262.30
  L 385.33 270.57"
/>
<path stroke="#fc93a2" vector-effect="non-scaling-stroke" d="
  M 393.95 261.77
  Q 393.12 266.64 393.79 271.11"
/>
<path stroke="#dcadbd" vector-effect="non-scaling-stroke" d="
  M 393.79 271.11
  Q 389.18 271.73 385.33 270.57"
/>
<path stroke="#dba4b7" vector-effect="non-scaling-stroke" d="
  M 398.54 270.87
  Q 397.07 272.12 393.79 271.11"
/>
<path stroke="#dddfe8" vector-effect="non-scaling-stroke" d="
  M 401.70 282.07
  L 382.06 281.98"
/>
<path stroke="#dddfe8" vector-effect="non-scaling-stroke" d="
  M 409.87 316.27
  Q 404.51 317.41 399.31 320.63
  C 395.48 323.01 392.61 323.55 388.46 322.96
  C 382.63 322.12 378.65 316.55 372.84 316.31"
/>
<path stroke="#a88798" vector-effect="non-scaling-stroke" d="
  M 261.37 271.36
  C 262.78 286.11 286.28 286.45 287.58 272.02
  A 0.56 0.56 0.0 0 0 286.93 271.42
  Q 274.32 273.58 261.77 271.01
  A 0.33 0.33 0.0 0 0 261.37 271.36"
/>
<path stroke="#a7876e" vector-effect="non-scaling-stroke" d="
  M 287.00 306.98
  Q 287.47 310.38 284.80 312.31"
/>
<path stroke="#a89376" vector-effect="non-scaling-stroke" d="
  M 284.80 312.31
  Q 279.91 314.15 278.36 319.61
  A 1.94 1.93 -64.6 0 0 279.11 321.73
  C 286.30 326.82 293.48 333.85 302.71 334.67"
/>
<path stroke="#a7876e" vector-effect="non-scaling-stroke" d="
  M 302.71 334.67
  C 309.17 335.49 314.96 333.16 321.41 333.68
  Q 321.90 333.72 322.17 333.31
  Q 325.66 328.10 323.71 322.03
  Q 323.36 320.95 323.98 318.52
  A 0.75 0.75 0.0 0 1 324.56 317.98
  C 330.34 316.94 329.85 309.79 325.92 306.87
  Q 321.03 303.23 313.31 300.65"
/>
<path stroke="#a89376" vector-effect="non-scaling-stroke" d="
  M 313.31 300.65
  Q 307.78 298.79 303.48 293.78
  C 299.42 289.04 291.23 284.09 288.53 293.01
  Q 287.98 294.82 289.52 298.19
  A 0.87 0.86 -39.1 0 1 289.42 299.08
  Q 286.60 302.66 287.00 306.98"
/>
<path stroke="#fec36d" vector-effect="non-scaling-stroke" d="
  M 313.31 300.65
  Q 319.51 307.03 317.19 312.12
  A 0.73 0.72 20.4 0 1 316.32 312.51
  Q 314.37 311.95 312.40 310.61
  C 309.83 308.87 295.17 298.35 291.51 298.53
  A 0.64 0.64 0.0 0 0 291.26 299.74
  C 293.83 301.00 297.13 302.82 295.73 306.52
  C 294.07 310.92 289.82 307.73 287.00 306.98"
/>
<path stroke="#fec36d" vector-effect="non-scaling-stroke" d="
  M 302.71 334.67
  Q 308.30 328.01 301.27 323.19
  Q 294.18 318.33 285.44 314.26
  Q 284.96 314.04 284.81 313.54
  Q 284.64 312.99 284.80 312.31"
/>
<path stroke="#a89376" vector-effect="non-scaling-stroke" d="
  M 246.07 308.15
  Q 241.57 307.09 237.07 308.97
  C 229.81 312.01 229.23 318.58 234.78 323.93"
/>
<path stroke="#a7876e" vector-effect="non-scaling-stroke" d="
  M 234.78 323.93
  C 236.05 326.98 234.12 328.91 233.01 331.26
  A 0.52 0.51 -77.2 0 0 233.47 332.00
  L 268.74 332.00
  A 1.11 1.11 0.0 0 0 269.83 331.10
  Q 270.46 327.73 273.23 325.73
  A 1.41 1.40 57.9 0 0 273.64 323.93
  C 271.60 320.09 273.00 317.12 274.94 313.67
  A 1.50 1.47 56.1 0 0 275.12 312.70
  Q 274.22 306.36 267.72 305.04
  C 261.14 303.70 258.45 306.61 253.41 309.01
  A 1.55 1.53 -53.5 0 1 252.51 309.15
  L 246.07 308.15"
/>
<path stroke="#fec36d" vector-effect="non-scaling-stroke" d="
  M 234.78 323.93
  C 237.20 322.70 239.91 323.75 242.06 323.44
  C 247.81 322.62 250.50 317.41 248.17 312.15
  Q 247.34 310.28 246.07 308.15"
/>
<path stroke="#a7876e" vector-effect="non-scaling-stroke" d="
  M 275.56 331.86
  L 282.71 331.76
  Q 283.65 331.74 282.97 331.09
  Q 281.07 329.27 278.67 328.27
  Q 278.11 328.04 277.74 328.52
  L 275.42 331.59
  Q 275.21 331.87 275.56 331.86"
/>
<path stroke="#a6718a" vector-effect="non-scaling-stroke" d="
  M 302.06 402.21
  Q 308.04 401.55 309.78 395.00
  Q 315.62 373.03 321.31 351.01
  C 322.39 346.83 323.61 342.41 321.53 339.23
  A 1.01 1.00 75.3 0 0 320.78 338.79
  Q 316.52 338.46 312.51 339.57"
/>
<path stroke="#a77a90" vector-effect="non-scaling-stroke" d="
  M 312.51 339.57
  Q 303.45 341.63 294.59 338.62
  Q 291.93 337.71 289.64 337.72
  Q 261.48 337.79 233.47 337.74
  A 0.41 0.41 0.0 0 0 233.06 338.18
  C 233.83 348.64 236.63 360.64 237.65 368.87
  Q 238.82 378.28 239.65 387.72
  C 240.41 396.33 241.80 402.29 251.50 402.26
  C 266.57 402.22 281.82 401.86 296.87 402.43
  Q 299.38 402.53 302.06 402.21"
/>
<path stroke="#fc93a2" vector-effect="non-scaling-stroke" d="
  M 312.51 339.57
  L 314.91 343.28
  A 1.20 1.16 -55.1 0 1 315.06 344.22
  Q 313.19 351.61 311.19 358.91
  C 310.18 362.60 310.56 366.56 307.86 370.50"
/>
<path stroke="#feced4" vector-effect="non-scaling-stroke" d="
  M 307.86 370.50
  Q 308.58 363.87 309.01 357.23
  C 309.48 349.95 299.63 348.87 299.03 357.39
  Q 298.11 370.59 297.07 383.78
  C 296.69 388.66 300.44 391.37 305.10 388.80"
/>
<path stroke="#fc93a2" vector-effect="non-scaling-stroke" d="
  M 305.10 388.80
  Q 305.29 394.64 302.36 398.59
  Q 300.90 400.56 302.06 402.21"
/>
<path stroke="#fdc5ce" vector-effect="non-scaling-stroke" d="
  M 305.10 388.80
  Q 307.92 380.47 307.86 370.50"
/>
<path stroke="#868ba4" vector-effect="non-scaling-stroke" d="
  M 343.43 360.75
  L 372.81 360.75
  A 0.47 0.47 0.0 0 0 373.28 360.28
  L 373.28 352.97
  A 15.00 14.94 -0.0 0 0 358.28 338.03
  L 357.96 338.03
  A 15.00 14.94 0.0 0 0 342.96 352.97
  L 342.96 360.28
  A 0.47 0.47 0.0 0 0 343.43 360.75"
/>
<path stroke="#868ba4" vector-effect="non-scaling-stroke" d="
  M 230.34 359.56
  C 229.05 352.80 220.89 349.64 214.94 349.61
  Q 171.68 349.41 128.44 349.56
  C 109.44 349.62 107.10 370.49 105.75 384.43
  A 0.52 0.51 -87.0 0 0 106.26 385.00
  L 233.02 385.00
  Q 233.60 385.00 233.56 384.42
  Q 232.68 371.83 230.34 359.56"
/>
<path stroke="#a89376" vector-effect="non-scaling-stroke" d="
  M 338.87 366.24
  C 331.47 367.92 331.22 372.30 329.15 379.89
  C 327.50 385.95 321.57 400.98 331.77 402.78"
/>
<path stroke="#a7876e" vector-effect="non-scaling-stroke" d="
  M 331.77 402.78
  L 343.08 402.74"
/>
<path stroke="#a89376" vector-effect="non-scaling-stroke" d="
  M 343.08 402.74
  L 353.40 402.74"
/>
<path stroke="#a7876e" vector-effect="non-scaling-stroke" d="
  M 353.40 402.74
  L 364.38 402.73"
/>
<path stroke="#a89376" vector-effect="non-scaling-stroke" d="
  M 364.38 402.73
  L 374.25 402.70"
/>
<path stroke="#a7876e" vector-effect="non-scaling-stroke" d="
  M 374.25 402.70
  C 386.73 403.51 390.64 402.04 388.21 388.69
  Q 386.86 381.30 385.34 373.93
  Q 384.09 367.90 378.17 366.35
  Q 375.99 365.77 369.90 366.01"
/>
<path stroke="#a89376" vector-effect="non-scaling-stroke" d="
  M 369.90 366.01
  L 363.29 366.02"
/>
<path stroke="#a7876e" vector-effect="non-scaling-stroke" d="
  M 363.29 366.02
  L 354.43 366.02"
/>
<path stroke="#a89376" vector-effect="non-scaling-stroke" d="
  M 354.43 366.02
  L 346.55 366.02"
/>
<path stroke="#a7876e" vector-effect="non-scaling-stroke" d="
  M 346.55 366.02
  L 338.87 366.24"
/>
<path stroke="#fec36d" vector-effect="non-scaling-stroke" d="
  M 346.55 366.02
  L 343.08 402.74"
/>
<path stroke="#fec36d" vector-effect="non-scaling-stroke" d="
  M 331.77 402.78
  L 338.87 366.24"
/>
<path stroke="#fec36d" vector-effect="non-scaling-stroke" d="
  M 354.43 366.02
  L 353.40 402.74"
/>
<path stroke="#fec36d" vector-effect="non-scaling-stroke" d="
  M 363.29 366.02
  L 364.38 402.73"
/>
<path stroke="#fec36d" vector-effect="non-scaling-stroke" d="
  M 369.90 366.01
  L 374.25 402.70"
/>
<path stroke="#a8abbb" vector-effect="non-scaling-stroke" d="
  M 105.67 390.59
  C 106.19 397.20 111.67 402.49 118.50 402.49
  Q 169.49 402.53 220.47 402.49
  C 228.16 402.48 235.46 399.71 234.41 390.52
  Q 234.35 389.98 233.80 389.98
  L 106.21 390.01
  Q 105.62 390.01 105.67 390.59"
/>
<path stroke="#dddfe8" vector-effect="non-scaling-stroke" d="
  M 179.4784 274.5595
  A 4.33 4.33 0.0 0 0 175.1334 270.2446
  L 154.8535 270.3154
  A 4.33 4.33 0.0 0 0 150.5386 274.6605
  L 150.5416 275.5005
  A 4.33 4.33 0.0 0 0 154.8866 279.8154
  L 175.1665 279.7446
  A 4.33 4.33 0.0 0 0 179.4814 275.3995
  L 179.4784 274.5595"
/>
<path stroke="#dcd7e0" vector-effect="non-scaling-stroke" d="
  M 141.1532 306.5142
  A 5.83 5.83 0.0 0 0 135.3028 300.7045
  L 103.4830 300.8156
  A 5.83 5.83 0.0 0 0 97.6734 306.6659
  L 97.7268 321.9658
  A 5.83 5.83 0.0 0 0 103.5772 327.7755
  L 135.3970 327.6644
  A 5.83 5.83 0.0 0 0 141.2066 321.8141
  L 141.1532 306.5142"
/>
<path stroke="#dcd7e0" vector-effect="non-scaling-stroke" d="
  M 181.9453 305.8147
  A 5.04 5.04 0.0 0 0 176.8965 300.7835
  L 158.0165 300.8165
  A 5.04 5.04 0.0 0 0 152.9853 305.8653
  L 153.0147 322.7253
  A 5.04 5.04 0.0 0 0 158.0635 327.7565
  L 176.9435 327.7235
  A 5.04 5.04 0.0 0 0 181.9747 322.6747
  L 181.9453 305.8147"
/>
<path stroke="#dcd7e0" vector-effect="non-scaling-stroke" d="
  M 135.9864 306.2313
  A 0.67 0.67 0.0 0 0 135.3152 305.5625
  L 103.7352 305.6176
  A 0.67 0.67 0.0 0 0 103.0664 306.2887
  L 103.0936 321.8887
  A 0.67 0.67 0.0 0 0 103.7648 322.5575
  L 135.3448 322.5024
  A 0.67 0.67 0.0 0 0 136.0136 321.8313
  L 135.9864 306.2313"
/>
<path stroke="#dcd7e0" vector-effect="non-scaling-stroke" d="
  M 177.1218 306.0901
  A 0.54 0.54 0.0 0 0 176.5846 305.5472
  L 158.5848 305.4530
  A 0.54 0.54 0.0 0 0 158.0420 305.9902
  L 157.9582 321.9899
  A 0.54 0.54 0.0 0 0 158.4954 322.5328
  L 176.4952 322.6270
  A 0.54 0.54 0.0 0 0 177.0380 322.0898
  L 177.1218 306.0901"
/>
<path stroke="#feced4" vector-effect="non-scaling-stroke" d="
  M 252.8886 355.8963
  A 4.68 4.68 0.0 0 0 247.9393 351.5021
  L 246.8811 351.5650
  A 4.68 4.68 0.0 0 0 242.4869 356.5143
  L 244.1914 385.2037
  A 4.68 4.68 0.0 0 0 249.1407 389.5979
  L 250.1989 389.5350
  A 4.68 4.68 0.0 0 0 254.5931 384.5857
  L 252.8886 355.8963"
/>
<path stroke="#feced4" vector-effect="non-scaling-stroke" d="
  M 271.3836 356.1662
  A 4.70 4.70 0.0 0 0 266.6428 351.5074
  L 265.8828 351.5140
  A 4.70 4.70 0.0 0 0 261.2240 356.2549
  L 261.4764 385.1738
  A 4.70 4.70 0.0 0 0 266.2172 389.8326
  L 266.9772 389.8260
  A 4.70 4.70 0.0 0 0 271.6360 385.0851
  L 271.3836 356.1662"
/>
<path stroke="#feced4" vector-effect="non-scaling-stroke" d="
  M 290.0084 356.4189
  A 4.78 4.78 0.0 0 0 285.3295 351.5398
  L 284.7896 351.5285
  A 4.78 4.78 0.0 0 0 279.9106 356.2074
  L 279.3116 384.8011
  A 4.78 4.78 0.0 0 0 283.9905 389.6802
  L 284.5304 389.6915
  A 4.78 4.78 0.0 0 0 289.4094 385.0126
  L 290.0084 356.4189"
/>
<path stroke="#868ba4" vector-effect="non-scaling-stroke" d="
  M 135.3205 367.7995
  A 9.27 8.85 -2.6 0 0 125.6585 359.3791
  A 9.27 8.85 -2.6 0 0 116.7995 368.6405
  A 9.27 8.85 -2.6 0 0 126.4615 377.0609
  A 9.27 8.85 -2.6 0 0 135.3205 367.7995"
/>
<path stroke="#868ba4" vector-effect="non-scaling-stroke" d="
  M 225.00 367.77
  A 6.98 6.98 0.0 0 0 218.02 360.79
  L 198.00 360.79
  A 6.98 6.98 0.0 0 0 191.02 367.77
  L 191.02 368.81
  A 6.98 6.98 0.0 0 0 198.00 375.79
  L 218.02 375.79
  A 6.98 6.98 0.0 0 0 225.00 368.81
  L 225.00 367.77"
/>
<path stroke="#a77a90" vector-effect="non-scaling-stroke" d="
  M 129.58 368.15
  A 3.52 3.52 0.0 0 0 126.06 364.63
  A 3.52 3.52 0.0 0 0 122.54 368.15
  A 3.52 3.52 0.0 0 0 126.06 371.67
  A 3.52 3.52 0.0 0 0 129.58 368.15"
/>
<path stroke="#a8abbb" vector-effect="non-scaling-stroke" d="
  M 219.2189 367.6909
  A 2.19 2.19 0.0 0 0 217.0213 365.5086
  L 199.0214 365.5714
  A 2.19 2.19 0.0 0 0 196.8391 367.7691
  L 196.8411 368.3491
  A 2.19 2.19 0.0 0 0 199.0387 370.5314
  L 217.0386 370.4686
  A 2.19 2.19 0.0 0 0 219.2209 368.2709
  L 219.2189 367.6909"
/>
</g>
<path fill="#feb6b9" d="
  M 406.39 110.24
  L 406.24 112.02
  Q 406.19 112.56 405.80 112.18
  L 405.45 111.82
  Q 404.92 111.30 404.25 111.60
  Q 402.62 112.33 400.81 111.93
  A 0.98 0.97 30.7 0 0 399.93 112.15
  Q 398.12 113.77 395.75 113.11
  Q 395.22 112.96 395.52 113.42
  L 395.83 113.91
  Q 396.13 114.37 395.59 114.37
  L 395.16 114.37
  C 384.81 105.64 373.93 99.21 360.08 97.94
  Q 340.05 96.10 323.25 106.31
  Q 318.82 107.41 316.93 112.25
  A 1.17 1.16 -82.1 0 1 315.96 112.99
  Q 312.86 113.33 310.06 111.94
  Q 309.74 111.78 309.46 112.00
  Q 308.50 112.76 307.06 111.93
  L 310.92 110.00
  Q 312.83 109.03 310.84 108.24
  C 304.52 105.74 299.96 105.33 298.72 97.34
  A 0.86 0.85 52.3 0 0 297.09 97.13
  L 294.11 104.06
  Q 293.92 104.50 293.47 104.68
  Q 289.20 106.42 284.79 107.77
  Q 284.46 107.88 284.19 108.13
  Q 283.82 108.48 283.66 108.61
  A 0.94 0.94 0.0 0 0 283.97 110.24
  Q 291.43 112.57 295.33 117.83
  L 288.24 118.11
  Q 287.73 118.13 287.44 118.56
  C 284.94 122.39 279.16 122.02 275.40 121.76
  Q 274.86 121.73 274.37 121.94
  Q 270.49 123.63 266.33 122.52
  Q 265.86 122.40 265.39 122.55
  Q 261.12 124.00 256.92 122.35
  A 1.69 1.69 0.0 0 0 254.78 123.20
  Q 253.58 125.72 250.74 124.88
  Q 250.32 124.76 250.04 124.43
  Q 248.87 123.11 246.96 123.32
  A 0.94 0.94 0.0 0 1 246.16 123.01
  C 242.03 118.33 231.76 124.09 226.69 118.55
  A 1.98 1.93 77.5 0 0 225.88 118.02
  Q 221.58 116.60 218.07 113.83
  C 215.07 111.48 209.83 111.04 207.80 109.19
  C 204.53 106.22 196.60 100.72 192.06 103.81
  Q 189.79 105.36 188.37 103.31
  A 0.47 0.47 0.0 0 0 187.51 103.51
  L 187.36 104.61
  Q 174.61 97.73 160.60 97.72
  C 140.34 97.05 122.27 104.70 108.19 119.63
  Q 108.17 117.54 106.94 116.95
  A 1.03 1.03 0.0 0 0 106.00 116.99
  C 102.39 119.05 101.79 121.35 99.28 123.60
  A 0.78 0.77 35.7 0 1 98.45 123.73
  Q 96.42 122.84 95.28 124.66
  A 0.75 0.74 18.2 0 1 94.58 125.01
  Q 94.39 125.00 94.21 125.00
  Q 93.76 125.02 93.75 125.48
  Q 93.75 125.62 93.73 125.75
  Q 93.59 126.46 93.44 126.65
  Q 91.64 128.90 89.66 130.98
  C 87.13 133.63 82.83 134.63 80.68 137.42
  Q 76.17 143.27 69.59 149.15
  A 0.34 0.34 0.0 0 1 69.04 148.77
  Q 69.35 147.96 68.67 147.36
  A 0.49 0.49 0.0 0 1 68.64 146.65
  Q 70.89 144.24 69.59 141.45
  C 108.64 81.94 172.30 47.51 243.03 43.76
  Q 252.89 43.24 263.01 44.00
  Q 346.67 50.33 406.39 110.24
  Z
  M 253.46 93.79
  Q 250.12 91.88 248.17 88.52
  A 0.81 0.81 0.0 0 0 246.76 88.55
  Q 245.03 91.78 241.84 93.58
  A 0.53 0.53 0.0 0 0 241.68 94.37
  C 243.54 96.81 245.50 97.33 246.60 100.71
  A 0.79 0.79 0.0 0 0 248.07 100.78
  Q 249.77 96.94 253.44 94.99
  A 0.69 0.68 -44.3 0 0 253.46 93.79
  Z"
/>
<path fill="#fed5d5" d="
  M 253.46 93.79
  A 0.69 0.68 -44.3 0 1 253.44 94.99
  Q 249.77 96.94 248.07 100.78
  A 0.79 0.79 0.0 0 1 246.60 100.71
  C 245.50 97.33 243.54 96.81 241.68 94.37
  A 0.53 0.53 0.0 0 1 241.84 93.58
  Q 245.03 91.78 246.76 88.55
  A 0.81 0.81 0.0 0 1 248.17 88.52
  Q 250.12 91.88 253.46 93.79
  Z"
/>
<path fill="#ffffff" d="
  M 307.06 111.93
  C 301.06 113.86 300.22 117.55 298.52 122.48
  A 0.70 0.70 0.0 0 1 297.20 122.51
  L 295.33 117.83
  Q 291.43 112.57 283.97 110.24
  A 0.94 0.94 0.0 0 1 283.66 108.61
  Q 283.82 108.48 284.19 108.13
  Q 284.46 107.88 284.79 107.77
  Q 289.20 106.42 293.47 104.68
  Q 293.92 104.50 294.11 104.06
  L 297.09 97.13
  A 0.86 0.85 52.3 0 1 298.72 97.34
  C 299.96 105.33 304.52 105.74 310.84 108.24
  Q 312.83 109.03 310.92 110.00
  L 307.06 111.93
  Z"
/>
<path fill="#ffffff" d="
  M 160.60 97.72
  L 160.14 99.60
  Q 160.01 100.14 160.52 100.37
  C 163.85 101.85 167.16 103.26 169.80 105.72
  Q 179.10 114.39 181.67 127.24
  C 167.46 133.00 167.17 153.43 182.64 157.15
  Q 181.61 170.99 176.52 184.34
  C 160.84 178.54 148.16 193.42 155.71 208.21
  Q 157.77 213.00 164.85 215.58
  C 158.12 222.89 152.16 226.09 144.55 230.61
  Q 111.82 223.85 95.63 193.63
  C 84.52 167.81 89.18 140.09 108.19 119.63
  C 122.27 104.70 140.34 97.05 160.60 97.72
  Z
  M 134.1361 135.3200
  A 9.21 8.99 89.9 0 0 143.1100 126.0943
  A 9.21 8.99 89.9 0 0 134.1039 116.9000
  A 9.21 8.99 89.9 0 0 125.1300 126.1257
  A 9.21 8.99 89.9 0 0 134.1361 135.3200
  Z
  M 131.61 172.74
  A 15.02 15.02 0.0 0 0 116.59 157.72
  A 15.02 15.02 0.0 0 0 101.57 172.74
  A 15.02 15.02 0.0 0 0 116.59 187.76
  A 15.02 15.02 0.0 0 0 131.61 172.74
  Z"
/>
<path fill="#fef0ee" d="
  M 160.60 97.72
  Q 174.61 97.73 187.36 104.61
  C 210.68 116.40 221.91 136.44 222.64 162.30
  C 218.27 162.84 203.47 166.80 205.88 172.75
  C 191.27 184.38 194.15 202.81 196.28 219.05
  Q 196.34 219.56 195.93 219.86
  Q 173.18 236.37 144.55 230.61
  C 152.16 226.09 158.12 222.89 164.85 215.58
  Q 171.04 216.99 176.18 214.41
  C 189.45 207.76 188.75 191.61 176.31 184.33
  Q 176.42 184.33 176.52 184.34
  Q 181.61 170.99 182.64 157.15
  Q 182.30 156.95 183.28 156.98
  C 208.22 161.54 205.65 121.35 182.08 127.22
  Q 181.91 127.30 181.67 127.24
  Q 179.10 114.39 169.80 105.72
  C 167.16 103.26 163.85 101.85 160.52 100.37
  Q 160.01 100.14 160.14 99.60
  L 160.60 97.72
  Z"
/>
<path fill="#ffcf75" d="
  M 360.08 97.94
  L 360.93 103.28
  Q 361.01 103.77 361.49 103.89
  C 385.14 109.77 403.75 127.08 407.83 151.30
  Q 414.18 189.09 381.20 211.40
  Q 371.84 217.74 361.13 218.83
  A 0.94 0.94 0.0 0 1 360.22 217.42
  C 363.30 212.03 361.06 199.40 359.16 193.53
  Q 367.19 185.58 370.20 175.26
  Q 376.83 174.33 378.51 168.26
  A 1.58 1.58 0.0 0 0 377.14 166.27
  L 371.09 165.67
  C 372.82 143.62 361.23 123.63 340.19 115.97
  C 335.32 114.20 329.21 113.88 323.76 113.26
  A 1.31 1.24 -15.7 0 1 322.93 112.82
  Q 320.90 110.38 323.25 106.31
  Q 340.05 96.10 360.08 97.94
  Z
  M 385.75 148.61
  A 5.73 5.73 0.0 0 0 380.02 142.88
  A 5.73 5.73 0.0 0 0 374.29 148.61
  A 5.73 5.73 0.0 0 0 380.02 154.34
  A 5.73 5.73 0.0 0 0 385.75 148.61
  Z
  M 392.21 156.53
  A 3.55 3.55 0.0 0 0 388.66 152.98
  A 3.55 3.55 0.0 0 0 385.11 156.53
  A 3.55 3.55 0.0 0 0 388.66 160.08
  A 3.55 3.55 0.0 0 0 392.21 156.53
  Z"
/>
<path fill="#fcb664" d="
  M 360.08 97.94
  C 373.93 99.21 384.81 105.64 395.16 114.37
  C 406.61 123.89 413.64 140.46 416.18 154.73
  C 419.55 189.40 394.41 221.82 359.27 225.27
  Q 357.49 225.44 354.03 224.98
  Q 354.68 215.94 355.32 206.98
  C 355.60 203.23 355.22 199.05 355.48 195.03
  Q 357.64 195.24 359.16 193.53
  C 361.06 199.40 363.30 212.03 360.22 217.42
  A 0.94 0.94 0.0 0 0 361.13 218.83
  Q 371.84 217.74 381.20 211.40
  Q 414.18 189.09 407.83 151.30
  C 403.75 127.08 385.14 109.77 361.49 103.89
  Q 361.01 103.77 360.93 103.28
  L 360.08 97.94
  Z"
/>
<path fill="#fdacb2" d="
  M 295.33 117.83
  L 297.20 122.51
  A 0.70 0.70 0.0 0 0 298.52 122.48
  C 300.22 117.55 301.06 113.86 307.06 111.93
  Q 308.50 112.76 309.46 112.00
  Q 309.74 111.78 310.06 111.94
  Q 312.86 113.33 315.96 112.99
  A 1.17 1.16 -82.1 0 0 316.93 112.25
  Q 318.82 107.41 323.25 106.31
  Q 320.90 110.38 322.93 112.82
  A 1.31 1.24 -15.7 0 0 323.76 113.26
  C 329.21 113.88 335.32 114.20 340.19 115.97
  C 361.23 123.63 372.82 143.62 371.09 165.67
  L 367.85 166.30
  Q 365.69 166.73 366.18 168.88
  Q 367.12 173.02 370.20 175.26
  Q 367.19 185.58 359.16 193.53
  Q 357.64 195.24 355.48 195.03
  C 353.23 185.67 351.24 179.25 343.58 173.20
  Q 344.07 169.48 341.48 167.78
  Q 325.51 157.26 308.14 166.75
  Q 307.71 166.98 307.32 166.70
  C 287.65 152.68 260.91 154.05 241.14 166.72
  Q 240.71 166.99 240.28 166.73
  Q 232.12 161.72 222.64 162.30
  C 221.91 136.44 210.68 116.40 187.36 104.61
  L 187.51 103.51
  A 0.47 0.47 0.0 0 1 188.37 103.31
  Q 189.79 105.36 192.06 103.81
  C 196.60 100.72 204.53 106.22 207.80 109.19
  C 209.83 111.04 215.07 111.48 218.07 113.83
  Q 221.58 116.60 225.88 118.02
  A 1.98 1.93 77.5 0 1 226.69 118.55
  C 231.76 124.09 242.03 118.33 246.16 123.01
  A 0.94 0.94 0.0 0 0 246.96 123.32
  Q 248.87 123.11 250.04 124.43
  Q 250.32 124.76 250.74 124.88
  Q 253.58 125.72 254.78 123.20
  A 1.69 1.69 0.0 0 1 256.92 122.35
  Q 261.12 124.00 265.39 122.55
  Q 265.86 122.40 266.33 122.52
  Q 270.49 123.63 274.37 121.94
  Q 274.86 121.73 275.40 121.76
  C 279.16 122.02 284.94 122.39 287.44 118.56
  Q 287.73 118.13 288.24 118.11
  L 295.33 117.83
  Z"
/>
<path fill="#fdacb2" d="
  M 406.39 110.24
  C 446.20 151.29 466.84 205.74 465.94 262.72
  Q 465.54 262.61 465.15 263.04
  Q 465.11 263.09 465.11 263.03
  L 464.74 255.83
  A 0.74 0.73 13.6 0 0 464.37 255.23
  Q 461.71 253.68 459.78 251.37
  A 0.74 0.73 -35.2 0 0 458.84 251.21
  Q 455.26 253.34 452.20 250.56
  A 0.90 0.89 -23.4 0 0 451.64 250.34
  L 437.83 250.00
  Q 437.37 249.98 437.13 249.58
  Q 435.93 247.53 436.93 245.39
  A 0.73 0.73 0.0 0 0 435.70 244.62
  C 432.41 248.71 427.93 244.56 425.43 241.09
  A 0.25 0.24 -39.4 0 0 425.06 241.06
  L 424.80 241.32
  Q 424.51 241.61 424.17 241.39
  Q 422.94 240.55 422.38 241.90
  Q 422.20 242.34 422.22 242.82
  Q 422.24 243.38 421.66 243.68
  Q 421.21 243.90 421.07 244.39
  Q 420.18 247.59 417.68 249.38
  C 419.59 240.19 424.13 239.90 431.38 236.47
  A 0.78 0.78 0.0 0 0 431.36 235.05
  L 421.52 230.70
  A 1.50 1.49 -1.1 0 1 420.78 229.99
  L 416.76 221.84
  Q 415.89 221.64 416.53 219.97
  C 417.21 218.21 419.68 217.08 419.63 215.26
  Q 419.35 206.25 421.50 197.59
  C 422.10 195.20 422.05 192.64 422.71 190.14
  Q 423.79 186.02 423.92 184.65
  Q 425.00 173.14 422.39 161.77
  Q 422.22 161.02 422.25 161.75
  Q 422.25 161.91 422.24 162.09
  A 0.15 0.15 0.0 0 1 421.94 162.10
  L 421.30 157.15
  A 0.95 0.95 0.0 0 0 420.68 156.37
  Q 419.47 155.95 419.37 154.76
  A 1.45 1.44 -27.5 0 0 416.82 153.96
  L 416.18 154.73
  C 413.64 140.46 406.61 123.89 395.16 114.37
  L 395.59 114.37
  Q 396.13 114.37 395.83 113.91
  L 395.52 113.42
  Q 395.22 112.96 395.75 113.11
  Q 398.12 113.77 399.93 112.15
  A 0.98 0.97 30.7 0 1 400.81 111.93
  Q 402.62 112.33 404.25 111.60
  Q 404.92 111.30 405.45 111.82
  L 405.80 112.18
  Q 406.19 112.56 406.24 112.02
  L 406.39 110.24
  Z"
/>
<path fill="#fdacb2" d="
  M 108.19 119.63
  C 89.18 140.09 84.52 167.81 95.63 193.63
  Q 93.36 191.69 93.81 196.52
  A 0.68 0.64 57.3 0 1 93.75 196.84
  L 92.26 200.09
  A 0.99 0.97 -42.2 0 0 92.22 200.78
  L 96.79 215.51
  A 0.15 0.15 0.0 0 1 96.54 215.66
  L 96.25 215.38
  Q 96.13 215.25 96.07 215.42
  L 95.16 218.17
  Q 95.04 218.56 95.39 218.76
  C 96.73 219.50 99.11 221.92 97.99 223.54
  Q 97.76 223.88 97.73 224.28
  L 97.45 227.13
  A 1.05 1.05 0.0 0 0 97.72 227.93
  C 99.30 229.70 102.37 231.19 100.82 234.12
  Q 98.21 239.06 94.83 237.42
  L 95.88 236.45
  A 0.54 0.53 -53.2 0 0 95.76 235.58
  Q 91.73 233.57 89.70 229.57
  A 0.81 0.81 0.0 0 0 88.25 229.58
  Q 86.85 232.50 85.24 233.37
  Q 81.84 234.06 79.74 231.87
  A 0.77 0.77 0.0 0 0 79.22 231.62
  L 72.26 231.03
  Q 71.78 230.99 71.36 231.22
  Q 67.35 233.40 62.83 234.26
  Q 62.37 234.35 62.07 233.99
  L 60.98 232.67
  Q 60.65 232.27 60.15 232.34
  Q 55.18 232.98 50.27 234.07
  C 45.65 235.09 45.12 239.76 41.36 240.96
  Q 39.99 241.39 38.53 241.64
  Q 38.36 241.66 38.28 241.52
  L 38.11 241.24
  Q 37.81 240.73 37.58 241.27
  Q 37.51 241.42 37.45 241.58
  Q 37.36 241.82 37.32 241.56
  L 37.05 239.53
  Q 36.99 239.08 36.83 239.50
  Q 36.77 239.67 36.74 239.76
  Q 36.56 240.29 36.51 239.73
  L 36.16 235.76
  Q 41.21 184.20 69.59 141.45
  Q 70.89 144.24 68.64 146.65
  A 0.49 0.49 0.0 0 0 68.67 147.36
  Q 69.35 147.96 69.04 148.77
  A 0.34 0.34 0.0 0 0 69.59 149.15
  Q 76.17 143.27 80.68 137.42
  C 82.83 134.63 87.13 133.63 89.66 130.98
  Q 91.64 128.90 93.44 126.65
  Q 93.59 126.46 93.73 125.75
  Q 93.75 125.62 93.75 125.48
  Q 93.76 125.02 94.21 125.00
  Q 94.39 125.00 94.58 125.01
  A 0.75 0.74 18.2 0 0 95.28 124.66
  Q 96.42 122.84 98.45 123.73
  A 0.78 0.77 35.7 0 0 99.28 123.60
  C 101.79 121.35 102.39 119.05 106.00 116.99
  A 1.03 1.03 0.0 0 1 106.94 116.95
  Q 108.17 117.54 108.19 119.63
  Z"
/>
<ellipse fill="#fed5d5" cx="0.00" cy="0.00" transform="translate(134.12,126.11) rotate(89.9)" rx="9.21" ry="8.99"/>
<path fill="#feb6b9" d="
  M 183.28 156.98
  Q 182.88 152.48 183.50 145.50
  Q 184.20 137.59 182.08 127.22
  C 205.65 121.35 208.22 161.54 183.28 156.98
  Z"
/>
<path fill="#fed5d5" d="
  M 181.67 127.24
  Q 181.91 127.30 182.08 127.22
  Q 184.20 137.59 183.50 145.50
  Q 182.88 152.48 183.28 156.98
  Q 182.30 156.95 182.64 157.15
  C 167.17 153.43 167.46 133.00 181.67 127.24
  Z"
/>
<circle fill="#515777" cx="380.02" cy="148.61" r="5.73"/>
<circle fill="#fd9ca8" cx="388.66" cy="156.53" r="3.55"/>
<path fill="#fd9ca8" d="
  M 416.76 221.84
  C 415.33 224.57 413.47 230.47 410.69 231.43
  Q 406.52 232.88 402.01 235.00
  A 0.77 0.76 46.9 0 0 401.97 236.36
  C 409.19 240.33 413.57 239.95 415.80 249.43
  A 0.62 0.62 0.0 0 0 416.94 249.59
  Q 417.20 249.14 417.68 249.38
  Q 420.18 247.59 421.07 244.39
  Q 421.21 243.90 421.66 243.68
  Q 422.24 243.38 422.22 242.82
  Q 422.20 242.34 422.38 241.90
  Q 422.94 240.55 424.17 241.39
  Q 424.51 241.61 424.80 241.32
  L 425.06 241.06
  A 0.25 0.24 -39.4 0 1 425.43 241.09
  C 427.93 244.56 432.41 248.71 435.70 244.62
  A 0.73 0.73 0.0 0 1 436.93 245.39
  Q 435.93 247.53 437.13 249.58
  Q 437.37 249.98 437.83 250.00
  L 451.64 250.34
  A 0.90 0.89 -23.4 0 1 452.20 250.56
  Q 455.26 253.34 458.84 251.21
  A 0.74 0.73 -35.2 0 1 459.78 251.37
  Q 461.71 253.68 464.37 255.23
  A 0.74 0.73 13.6 0 1 464.74 255.83
  L 465.11 263.03
  Q 465.11 263.09 465.15 263.04
  Q 465.54 262.61 465.94 262.72
  Q 464.64 295.76 453.22 326.94
  Q 452.33 324.71 453.94 321.36
  Q 454.19 320.85 453.75 320.50
  Q 448.59 316.33 442.11 315.78
  C 437.69 315.40 434.96 314.49 431.22 313.28
  A 3.08 3.05 -89.7 0 1 429.25 311.27
  Q 427.76 306.44 423.45 303.80
  A 1.66 1.60 6.8 0 1 422.78 302.98
  C 422.06 300.93 421.66 298.27 419.43 297.35
  Q 418.89 297.13 418.87 296.54
  L 418.69 290.21
  A 0.63 0.63 0.0 0 0 418.43 289.72
  L 416.91 288.56
  Q 416.50 288.25 416.50 288.77
  L 416.50 289.36
  Q 416.50 290.07 415.88 289.74
  L 412.22 287.80
  Q 411.68 287.52 411.89 286.95
  C 412.72 284.60 411.73 282.65 411.78 280.66
  Q 411.95 274.94 411.79 269.21
  C 411.65 264.06 412.38 260.87 406.82 259.96
  C 404.60 246.43 391.65 242.67 379.68 245.14
  C 371.95 246.74 371.19 259.75 378.66 261.54
  Q 379.25 261.68 379.33 262.29
  Q 380.49 271.50 377.07 279.44
  C 373.73 287.19 370.85 295.15 367.94 303.07
  Q 367.48 304.35 367.36 305.50
  C 366.43 314.56 366.99 324.20 366.96 333.24
  A 0.51 0.51 0.0 0 1 366.24 333.71
  C 357.10 329.65 345.86 333.69 340.93 342.23
  Q 340.56 342.88 339.00 342.95
  Q 334.04 343.18 329.00 342.92
  A 0.59 0.59 0.0 0 1 328.45 342.26
  Q 328.89 338.91 327.26 336.01
  A 0.89 0.89 0.0 0 1 327.30 335.06
  Q 331.11 329.62 329.69 323.01
  Q 329.57 322.46 330.01 322.10
  Q 334.02 318.87 334.49 314.21
  Q 335.53 303.89 325.73 300.87
  Q 328.73 289.79 319.67 279.68
  C 330.50 283.34 344.22 283.33 352.42 274.16
  Q 352.76 273.78 352.75 273.27
  L 352.71 271.53
  Q 367.69 250.86 354.54 229.69
  Q 353.74 228.41 354.03 224.98
  Q 357.49 225.44 359.27 225.27
  C 394.41 221.82 419.55 189.40 416.18 154.73
  L 416.82 153.96
  A 1.45 1.44 -27.5 0 1 419.37 154.76
  Q 419.47 155.95 420.68 156.37
  A 0.95 0.95 0.0 0 1 421.30 157.15
  L 421.94 162.10
  A 0.15 0.15 0.0 0 0 422.24 162.09
  Q 422.25 161.91 422.25 161.75
  Q 422.22 161.02 422.39 161.77
  Q 425.00 173.14 423.92 184.65
  Q 423.79 186.02 422.71 190.14
  C 422.05 192.64 422.10 195.20 421.50 197.59
  Q 419.35 206.25 419.63 215.26
  C 419.68 217.08 417.21 218.21 416.53 219.97
  Q 415.89 221.64 416.76 221.84
  Z"
/>
<path fill="#515777" d="
  M 343.58 173.20
  Q 342.38 174.89 339.99 174.75
  Q 329.17 165.13 314.62 169.94
  Q 312.75 170.56 314.19 171.91
  L 319.02 176.45
  Q 335.58 198.83 331.07 224.73
  Q 329.49 222.77 326.53 221.64
  Q 325.93 220.52 326.06 219.06
  Q 327.07 207.75 323.83 198.06
  C 320.32 184.20 308.55 172.09 295.71 166.79
  C 262.70 153.16 221.87 174.56 221.63 212.98
  Q 221.60 217.36 221.92 221.79
  Q 219.14 222.63 217.65 225.62
  C 214.85 210.66 216.85 194.64 225.24 182.23
  C 227.78 178.47 231.58 175.14 234.79 171.60
  A 0.58 0.58 0.0 0 0 234.59 170.68
  Q 220.78 164.66 209.57 174.20
  Q 209.17 174.54 208.64 174.52
  Q 206.78 174.44 205.88 172.75
  C 203.47 166.80 218.27 162.84 222.64 162.30
  Q 232.12 161.72 240.28 166.73
  Q 240.71 166.99 241.14 166.72
  C 260.91 154.05 287.65 152.68 307.32 166.70
  Q 307.71 166.98 308.14 166.75
  Q 325.51 157.26 341.48 167.78
  Q 344.07 169.48 343.58 173.20
  Z"
/>
<circle fill="#fed5d5" cx="116.59" cy="172.74" r="15.02"/>
<path fill="#fd9ca8" d="
  M 323.83 198.06
  L 322.93 198.68
  A 0.90 0.89 70.9 0 0 322.54 199.49
  Q 323.40 211.32 321.32 223.23
  Q 319.96 222.71 320.13 222.38
  C 307.69 215.66 303.16 207.52 297.88 194.58
  Q 297.60 193.90 297.17 194.50
  C 279.71 218.65 251.96 224.03 223.35 224.30
  Q 222.15 223.08 221.92 221.79
  Q 221.60 217.36 221.63 212.98
  C 221.87 174.56 262.70 153.16 295.71 166.79
  C 308.55 172.09 320.32 184.20 323.83 198.06
  Z"
/>
<path fill="#fd9ca8" d="
  M 371.09 165.67
  L 377.14 166.27
  A 1.58 1.58 0.0 0 1 378.51 168.26
  Q 376.83 174.33 370.20 175.26
  Q 367.12 173.02 366.18 168.88
  Q 365.69 166.73 367.85 166.30
  L 371.09 165.67
  Z"
/>
<path fill="#fd9ca8" d="
  M 339.99 174.75
  C 344.99 180.85 345.39 189.21 345.19 196.77
  A 0.47 0.47 0.0 0 1 344.30 196.97
  Q 342.34 193.01 339.63 189.16
  Q 331.78 177.97 319.02 176.45
  L 314.19 171.91
  Q 312.75 170.56 314.62 169.94
  Q 329.17 165.13 339.99 174.75
  Z"
/>
<path fill="#fd9ca8" d="
  M 217.65 225.62
  Q 216.71 230.28 217.90 234.52
  Q 215.72 241.03 221.75 244.55
  A 1.43 1.36 59.7 0 0 222.41 244.74
  L 225.10 244.77
  Q 225.62 244.77 225.87 245.22
  Q 231.41 255.20 240.74 261.73
  A 0.60 0.59 31.3 0 1 240.93 262.49
  C 238.15 268.04 231.11 272.37 225.51 274.46
  Q 210.51 280.05 199.74 268.79
  Q 199.33 268.37 198.79 268.57
  Q 197.07 269.22 196.09 270.87
  A 0.47 0.47 0.0 0 1 195.22 270.72
  C 193.64 262.91 190.90 258.80 182.24 258.78
  Q 140.78 258.70 99.31 258.87
  Q 91.65 258.91 89.01 266.24
  C 86.06 274.42 82.70 281.94 82.72 289.99
  Q 82.78 312.85 82.75 335.71
  C 82.75 338.23 83.19 340.31 83.95 342.64
  Q 84.15 343.25 83.51 343.25
  L 69.01 343.25
  A 1.38 1.37 7.4 0 0 67.68 344.27
  C 66.26 349.49 71.46 348.56 74.39 348.45
  C 71.26 354.76 74.04 356.38 79.86 356.49
  Q 90.92 356.68 101.78 355.99
  A 0.75 0.75 0.0 0 1 102.56 356.90
  C 101.64 361.14 99.09 368.49 93.67 368.12
  C 90.26 367.89 81.87 368.09 79.15 371.11
  C 77.70 372.72 76.65 373.06 74.83 373.82
  A 0.35 0.35 0.0 0 0 74.89 374.49
  L 75.52 374.61
  A 0.19 0.19 0.0 0 1 75.46 374.99
  Q 74.48 374.91 73.84 375.35
  C 44.05 333.94 31.30 286.68 36.16 235.76
  L 36.51 239.73
  Q 36.56 240.29 36.74 239.76
  Q 36.77 239.67 36.83 239.50
  Q 36.99 239.08 37.05 239.53
  L 37.32 241.56
  Q 37.36 241.82 37.45 241.58
  Q 37.51 241.42 37.58 241.27
  Q 37.81 240.73 38.11 241.24
  L 38.28 241.52
  Q 38.36 241.66 38.53 241.64
  Q 39.99 241.39 41.36 240.96
  C 45.12 239.76 45.65 235.09 50.27 234.07
  Q 55.18 232.98 60.15 232.34
  Q 60.65 232.27 60.98 232.67
  L 62.07 233.99
  Q 62.37 234.35 62.83 234.26
  Q 67.35 233.40 71.36 231.22
  Q 71.78 230.99 72.26 231.03
  L 79.22 231.62
  A 0.77 0.77 0.0 0 1 79.74 231.87
  Q 81.84 234.06 85.24 233.37
  L 81.55 235.68
  A 0.68 0.68 0.0 0 0 81.67 236.89
  Q 86.07 238.62 88.12 242.90
  A 0.95 0.95 0.0 0 0 89.84 242.87
  Q 91.65 238.77 94.83 237.42
  Q 98.21 239.06 100.82 234.12
  C 102.37 231.19 99.30 229.70 97.72 227.93
  A 1.05 1.05 0.0 0 1 97.45 227.13
  L 97.73 224.28
  Q 97.76 223.88 97.99 223.54
  C 99.11 221.92 96.73 219.50 95.39 218.76
  Q 95.04 218.56 95.16 218.17
  L 96.07 215.42
  Q 96.13 215.25 96.25 215.38
  L 96.54 215.66
  A 0.15 0.15 0.0 0 0 96.79 215.51
  L 92.22 200.78
  A 0.99 0.97 -42.2 0 1 92.26 200.09
  L 93.75 196.84
  A 0.68 0.64 57.3 0 0 93.81 196.52
  Q 93.36 191.69 95.63 193.63
  Q 111.82 223.85 144.55 230.61
  Q 173.18 236.37 195.93 219.86
  Q 196.34 219.56 196.28 219.05
  C 194.15 202.81 191.27 184.38 205.88 172.75
  Q 206.78 174.44 208.64 174.52
  Q 209.17 174.54 209.57 174.20
  Q 220.78 164.66 234.59 170.68
  A 0.58 0.58 0.0 0 1 234.79 171.60
  C 231.58 175.14 227.78 178.47 225.24 182.23
  C 216.85 194.64 214.85 210.66 217.65 225.62
  Z"
/>
<path fill="#fb8a9c" d="
  M 343.58 173.20
  C 351.24 179.25 353.23 185.67 355.48 195.03
  C 355.22 199.05 355.60 203.23 355.32 206.98
  Q 354.68 215.94 354.03 224.98
  Q 353.74 228.41 354.54 229.69
  Q 367.69 250.86 352.71 271.53
  Q 351.31 268.95 349.23 268.78
  A 1.17 1.17 0.0 0 0 348.38 269.05
  L 341.41 274.76
  Q 340.11 272.50 341.24 271.51
  C 350.82 263.15 355.19 249.02 347.53 238.25
  A 0.37 0.37 0.0 0 0 346.86 238.47
  L 346.98 244.87
  Q 346.99 245.44 346.42 245.51
  Q 345.32 245.65 344.97 244.55
  A 0.47 0.47 0.0 0 0 344.05 244.65
  C 343.02 254.72 337.73 259.49 330.47 265.48
  C 327.21 268.18 328.70 272.49 329.81 276.28
  Q 316.81 273.57 308.43 262.59
  A 0.82 0.81 -34.2 0 1 308.66 261.40
  Q 318.19 255.60 323.08 245.57
  Q 323.29 245.13 323.78 245.08
  Q 335.83 243.88 331.86 234.33
  Q 333.95 228.72 331.07 224.73
  Q 335.58 198.83 319.02 176.45
  Q 331.78 177.97 339.63 189.16
  Q 342.34 193.01 344.30 196.97
  A 0.47 0.47 0.0 0 0 345.19 196.77
  C 345.39 189.21 344.99 180.85 339.99 174.75
  Q 342.38 174.89 343.58 173.20
  Z"
/>
<path fill="#fed5d5" d="
  M 176.52 184.34
  Q 176.42 184.33 176.31 184.33
  Q 169.49 199.37 155.71 208.21
  C 148.16 193.42 160.84 178.54 176.52 184.34
  Z"
/>
<path fill="#feb6b9" d="
  M 176.31 184.33
  C 188.75 191.61 189.45 207.76 176.18 214.41
  Q 171.04 216.99 164.85 215.58
  Q 157.77 213.00 155.71 208.21
  Q 169.49 199.37 176.31 184.33
  Z"
/>
<path fill="#ffffff" d="
  M 320.13 222.38
  L 319.33 223.77
  A 1.05 0.98 64.7 0 0 319.19 224.21
  C 316.87 255.08 287.52 266.62 260.70 262.39
  Q 260.22 262.32 259.92 262.69
  L 258.87 263.99
  Q 238.77 258.36 229.46 239.41
  Q 229.20 238.87 228.61 238.96
  Q 224.34 239.62 221.70 238.16
  Q 220.28 232.55 220.29 227.24
  C 220.30 225.05 221.41 224.50 223.35 224.30
  C 251.96 224.03 279.71 218.65 297.17 194.50
  Q 297.60 193.90 297.88 194.58
  C 303.16 207.52 307.69 215.66 320.13 222.38
  Z
  M 258.30 230.94
  A 5.71 5.71 0.0 0 0 252.59 225.23
  A 5.71 5.71 0.0 0 0 246.88 230.94
  A 5.71 5.71 0.0 0 0 252.59 236.65
  A 5.71 5.71 0.0 0 0 258.30 230.94
  Z
  M 303.31 230.93
  A 5.69 5.69 0.0 0 0 297.62 225.24
  A 5.69 5.69 0.0 0 0 291.93 230.93
  A 5.69 5.69 0.0 0 0 297.62 236.62
  A 5.69 5.69 0.0 0 0 303.31 230.93
  Z
  M 249.07 242.03
  A 4.95 4.95 0.0 0 0 244.12 237.08
  A 4.95 4.95 0.0 0 0 239.17 242.03
  A 4.95 4.95 0.0 0 0 244.12 246.98
  A 4.95 4.95 0.0 0 0 249.07 242.03
  Z
  M 310.78 242.13
  A 4.94 4.94 0.0 0 0 305.84 237.19
  A 4.94 4.94 0.0 0 0 300.90 242.13
  A 4.94 4.94 0.0 0 0 305.84 247.07
  A 4.94 4.94 0.0 0 0 310.78 242.13
  Z
  M 281.76 240.01
  L 268.32 240.01
  A 0.78 0.78 0.0 0 0 267.54 240.79
  L 267.54 241.80
  A 7.65 7.40 90.0 0 0 274.94 249.45
  L 275.14 249.45
  A 7.65 7.40 -90.0 0 0 282.54 241.80
  L 282.54 240.79
  A 0.78 0.78 0.0 0 0 281.76 240.01
  Z"
/>
<path fill="#fb8a9c" d="
  M 323.83 198.06
  Q 327.07 207.75 326.06 219.06
  Q 325.93 220.52 326.53 221.64
  Q 326.87 224.27 326.17 225.78
  Q 325.92 226.31 325.37 226.10
  Q 322.56 225.02 321.32 223.23
  Q 323.40 211.32 322.54 199.49
  A 0.90 0.89 70.9 0 1 322.93 198.68
  L 323.83 198.06
  Z"
/>
<path fill="#fed5d5" d="
  M 221.92 221.79
  Q 222.15 223.08 223.35 224.30
  C 221.41 224.50 220.30 225.05 220.29 227.24
  Q 220.28 232.55 221.70 238.16
  L 217.90 234.52
  Q 216.71 230.28 217.65 225.62
  Q 219.14 222.63 221.92 221.79
  Z"
/>
<path fill="#fed5d5" d="
  M 326.53 221.64
  Q 329.49 222.77 331.07 224.73
  Q 333.95 228.72 331.86 234.33
  Q 327.73 240.26 322.13 238.87
  A 1.58 1.58 0.0 0 0 320.37 239.63
  Q 305.70 265.74 275.25 266.69
  Q 267.22 266.93 258.87 263.99
  L 259.92 262.69
  Q 260.22 262.32 260.70 262.39
  C 287.52 266.62 316.87 255.08 319.19 224.21
  A 1.05 0.98 64.7 0 1 319.33 223.77
  L 320.13 222.38
  Q 319.96 222.71 321.32 223.23
  Q 322.56 225.02 325.37 226.10
  Q 325.92 226.31 326.17 225.78
  Q 326.87 224.27 326.53 221.64
  Z"
/>
<path fill="#ffffff" d="
  M 416.76 221.84
  L 420.78 229.99
  A 1.50 1.49 -1.1 0 0 421.52 230.70
  L 431.36 235.05
  A 0.78 0.78 0.0 0 1 431.38 236.47
  C 424.13 239.90 419.59 240.19 417.68 249.38
  Q 417.20 249.14 416.94 249.59
  A 0.62 0.62 0.0 0 1 415.80 249.43
  C 413.57 239.95 409.19 240.33 401.97 236.36
  A 0.77 0.76 46.9 0 1 402.01 235.00
  Q 406.52 232.88 410.69 231.43
  C 413.47 230.47 415.33 224.57 416.76 221.84
  Z"
/>
<circle fill="#515777" cx="252.59" cy="230.94" r="5.71"/>
<circle fill="#515777" cx="297.62" cy="230.93" r="5.69"/>
<path fill="#ffffff" d="
  M 94.83 237.42
  Q 91.65 238.77 89.84 242.87
  A 0.95 0.95 0.0 0 1 88.12 242.90
  Q 86.07 238.62 81.67 236.89
  A 0.68 0.68 0.0 0 1 81.55 235.68
  L 85.24 233.37
  Q 86.85 232.50 88.25 229.58
  A 0.81 0.81 0.0 0 1 89.70 229.57
  Q 91.73 233.57 95.76 235.58
  A 0.54 0.53 -53.2 0 1 95.88 236.45
  L 94.83 237.42
  Z"
/>
<path fill="#515777" d="
  M 217.90 234.52
  L 221.70 238.16
  Q 224.34 239.62 228.61 238.96
  Q 229.20 238.87 229.46 239.41
  Q 238.77 258.36 258.87 263.99
  Q 267.22 266.93 275.25 266.69
  Q 305.70 265.74 320.37 239.63
  A 1.58 1.58 0.0 0 1 322.13 238.87
  Q 327.73 240.26 331.86 234.33
  Q 335.83 243.88 323.78 245.08
  Q 323.29 245.13 323.08 245.57
  Q 318.19 255.60 308.66 261.40
  A 0.82 0.81 -34.2 0 0 308.43 262.59
  Q 316.81 273.57 329.81 276.28
  Q 335.85 276.66 341.41 274.76
  L 348.38 269.05
  A 1.17 1.17 0.0 0 1 349.23 268.78
  Q 351.31 268.95 352.71 271.53
  L 352.75 273.27
  Q 352.76 273.78 352.42 274.16
  C 344.22 283.33 330.50 283.34 319.67 279.68
  Q 310.34 274.63 303.12 265.90
  Q 302.80 265.51 302.34 265.71
  L 293.41 269.64
  A 0.74 0.73 -15.4 0 0 292.98 270.39
  C 293.91 277.93 289.41 283.87 282.89 286.64
  C 272.07 291.24 260.96 286.79 256.56 275.56
  L 255.98 269.95
  Q 255.93 269.48 255.50 269.30
  L 247.28 265.70
  Q 246.56 265.39 246.06 265.99
  Q 238.82 274.59 229.21 279.98
  C 219.65 282.97 206.77 283.32 198.71 276.31
  A 0.96 0.95 -73.6 0 0 197.14 277.17
  C 197.74 281.29 198.24 285.05 198.25 289.30
  Q 198.27 313.37 198.23 337.44
  Q 198.22 338.92 197.10 343.22
  Q 196.96 343.77 197.53 343.76
  C 209.10 343.54 218.93 342.28 227.48 346.91
  Q 228.19 347.29 228.11 346.49
  C 227.50 340.64 225.24 333.68 228.82 326.95
  A 1.01 1.00 -45.9 0 0 228.81 326.00
  Q 226.00 320.94 225.57 318.97
  Q 224.57 314.29 226.98 309.83
  Q 230.72 304.56 236.62 303.36
  A 0.47 0.47 0.0 0 0 236.98 302.76
  C 234.21 293.35 241.88 281.68 248.19 275.26
  Q 248.56 274.89 249.05 275.06
  Q 250.90 275.69 251.40 278.14
  C 247.70 284.80 239.99 293.82 242.27 301.83
  Q 242.38 302.22 242.78 302.26
  L 251.90 303.36
  A 0.58 0.55 -52.8 0 0 252.21 303.31
  Q 258.96 299.92 261.56 299.55
  C 268.34 298.60 277.28 301.16 280.17 308.07
  A 0.55 0.55 0.0 0 0 281.15 308.13
  Q 281.26 307.94 281.40 307.54
  C 282.00 305.85 281.65 302.35 282.24 300.14
  C 283.29 296.15 282.26 292.13 284.47 288.51
  Q 289.33 280.59 299.36 283.36
  Q 300.00 283.53 299.70 282.94
  C 298.66 280.91 296.19 277.89 299.06 275.90
  A 1.76 1.76 0.0 0 1 301.51 276.37
  L 305.23 281.92
  C 308.54 288.66 310.05 293.89 315.81 295.14
  L 325.73 300.87
  Q 335.53 303.89 334.49 314.21
  Q 334.02 318.87 330.01 322.10
  Q 329.57 322.46 329.69 323.01
  Q 331.11 329.62 327.30 335.06
  A 0.89 0.89 0.0 0 0 327.26 336.01
  Q 328.89 338.91 328.45 342.26
  A 0.59 0.59 0.0 0 0 329.00 342.92
  Q 334.04 343.18 339.00 342.95
  Q 340.56 342.88 340.93 342.23
  C 345.86 333.69 357.10 329.65 366.24 333.71
  A 0.51 0.51 0.0 0 0 366.96 333.24
  C 366.99 324.20 366.43 314.56 367.36 305.50
  Q 367.48 304.35 367.94 303.07
  C 370.85 295.15 373.73 287.19 377.07 279.44
  Q 380.49 271.50 379.33 262.29
  Q 379.25 261.68 378.66 261.54
  C 371.19 259.75 371.95 246.74 379.68 245.14
  C 391.65 242.67 404.60 246.43 406.82 259.96
  C 407.40 264.00 406.93 266.07 405.36 269.81
  C 403.34 274.64 412.36 296.11 414.32 301.95
  Q 415.46 305.34 415.56 308.83
  Q 415.90 321.07 415.63 333.32
  Q 415.50 339.13 414.10 342.66
  Q 414.00 342.91 414.27 342.92
  L 431.92 343.24
  A 1.23 1.22 79.7 0 1 433.05 344.03
  C 434.37 347.45 432.05 348.51 429.10 348.51
  Q 404.29 348.49 379.66 348.51
  A 0.89 0.88 -0.9 0 0 378.77 349.42
  L 379.08 360.60
  A 0.65 0.65 0.0 0 0 379.55 361.20
  Q 387.61 363.39 390.04 370.25
  Q 392.12 376.16 394.20 389.22
  C 395.72 398.85 394.19 407.73 382.50 407.74
  Q 356.87 407.77 331.26 407.63
  C 314.45 407.53 322.37 382.75 324.70 374.45
  C 326.73 367.20 329.41 363.01 336.66 361.24
  A 0.69 0.68 -6.7 0 0 337.18 360.59
  L 337.42 348.96
  Q 337.43 348.50 336.97 348.50
  L 327.81 348.50
  Q 327.28 348.50 327.16 349.02
  C 323.43 365.08 319.63 381.69 315.01 397.70
  C 312.81 405.31 306.87 407.68 299.50 407.72
  Q 274.97 407.85 250.43 407.64
  Q 241.91 407.57 237.90 401.47
  Q 237.60 401.02 237.26 401.44
  Q 232.21 407.69 224.94 407.71
  Q 172.94 407.81 120.96 407.71
  C 113.96 407.70 108.93 407.10 104.60 402.19
  C 97.09 393.68 100.12 382.06 101.48 372.30
  Q 103.49 357.87 113.93 348.10
  Q 120.64 343.74 128.50 343.74
  Q 153.55 343.75 178.43 343.75
  C 185.09 343.79 193.27 346.09 193.26 336.00
  Q 193.23 313.75 193.27 291.47
  C 193.28 284.09 191.46 277.89 189.30 271.10
  C 188.77 266.69 187.16 263.98 182.39 263.98
  Q 140.16 264.01 98.89 264.00
  A 5.03 5.02 -81.7 0 0 94.06 267.60
  L 88.32 287.00
  L 88.49 295.09
  Q 88.51 313.95 88.49 333.02
  C 88.48 340.54 90.22 345.38 97.17 348.18
  L 74.39 348.45
  C 71.46 348.56 66.26 349.49 67.68 344.27
  A 1.38 1.37 7.4 0 1 69.01 343.25
  L 83.51 343.25
  Q 84.15 343.25 83.95 342.64
  C 83.19 340.31 82.75 338.23 82.75 335.71
  Q 82.78 312.85 82.72 289.99
  C 82.70 281.94 86.06 274.42 89.01 266.24
  Q 91.65 258.91 99.31 258.87
  Q 140.78 258.70 182.24 258.78
  C 190.90 258.80 193.64 262.91 195.22 270.72
  A 0.47 0.47 0.0 0 0 196.09 270.87
  Q 197.07 269.22 198.79 268.57
  Q 199.33 268.37 199.74 268.79
  Q 210.51 280.05 225.51 274.46
  C 231.11 272.37 238.15 268.04 240.93 262.49
  A 0.60 0.59 31.3 0 0 240.74 261.73
  Q 231.41 255.20 225.87 245.22
  Q 225.62 244.77 225.10 244.77
  L 222.41 244.74
  A 1.43 1.36 59.7 0 1 221.75 244.55
  Q 215.72 241.03 217.90 234.52
  Z
  M 384.23 251.07
  L 380.43 251.04
  Q 379.75 251.03 379.75 251.71
  L 379.75 255.80
  A 0.62 0.62 0.0 0 0 380.36 256.42
  L 384.50 256.47
  L 398.44 256.48
  A 0.56 0.55 -20.0 0 0 398.87 255.57
  Q 393.47 249.17 384.23 251.07
  Z
  M 385.33 270.57
  Q 385.03 276.26 382.06 281.98
  Q 378.24 291.91 374.45 302.04
  C 372.60 306.97 372.93 311.17 372.84 316.31
  Q 372.71 324.89 372.72 333.61
  C 372.73 337.79 374.19 340.23 377.21 342.71
  Q 377.60 343.04 378.11 343.05
  Q 389.02 343.41 399.97 343.21
  C 404.72 343.12 408.94 343.15 409.68 337.92
  Q 410.44 332.52 409.87 316.27
  Q 410.25 313.06 409.92 309.07
  Q 409.66 305.96 408.41 302.08
  Q 405.14 291.87 401.70 282.07
  Q 399.18 276.81 398.54 270.87
  Q 401.15 266.71 401.32 262.34
  Q 401.34 261.77 400.77 261.77
  L 393.95 261.77
  L 385.81 261.76
  A 0.54 0.53 -0.5 0 0 385.27 262.30
  L 385.33 270.57
  Z
  M 261.37 271.36
  C 262.78 286.11 286.28 286.45 287.58 272.02
  A 0.56 0.56 0.0 0 0 286.93 271.42
  Q 274.32 273.58 261.77 271.01
  A 0.33 0.33 0.0 0 0 261.37 271.36
  Z
  M 287.00 306.98
  Q 287.47 310.38 284.80 312.31
  Q 279.91 314.15 278.36 319.61
  A 1.94 1.93 -64.6 0 0 279.11 321.73
  C 286.30 326.82 293.48 333.85 302.71 334.67
  C 309.17 335.49 314.96 333.16 321.41 333.68
  Q 321.90 333.72 322.17 333.31
  Q 325.66 328.10 323.71 322.03
  Q 323.36 320.95 323.98 318.52
  A 0.75 0.75 0.0 0 1 324.56 317.98
  C 330.34 316.94 329.85 309.79 325.92 306.87
  Q 321.03 303.23 313.31 300.65
  Q 307.78 298.79 303.48 293.78
  C 299.42 289.04 291.23 284.09 288.53 293.01
  Q 287.98 294.82 289.52 298.19
  A 0.87 0.86 -39.1 0 1 289.42 299.08
  Q 286.60 302.66 287.00 306.98
  Z
  M 246.07 308.15
  Q 241.57 307.09 237.07 308.97
  C 229.81 312.01 229.23 318.58 234.78 323.93
  C 236.05 326.98 234.12 328.91 233.01 331.26
  A 0.52 0.51 -77.2 0 0 233.47 332.00
  L 268.74 332.00
  A 1.11 1.11 0.0 0 0 269.83 331.10
  Q 270.46 327.73 273.23 325.73
  A 1.41 1.40 57.9 0 0 273.64 323.93
  C 271.60 320.09 273.00 317.12 274.94 313.67
  A 1.50 1.47 56.1 0 0 275.12 312.70
  Q 274.22 306.36 267.72 305.04
  C 261.14 303.70 258.45 306.61 253.41 309.01
  A 1.55 1.53 -53.5 0 1 252.51 309.15
  L 246.07 308.15
  Z
  M 275.56 331.86
  L 282.71 331.76
  Q 283.65 331.74 282.97 331.09
  Q 281.07 329.27 278.67 328.27
  Q 278.11 328.04 277.74 328.52
  L 275.42 331.59
  Q 275.21 331.87 275.56 331.86
  Z
  M 302.06 402.21
  Q 308.04 401.55 309.78 395.00
  Q 315.62 373.03 321.31 351.01
  C 322.39 346.83 323.61 342.41 321.53 339.23
  A 1.01 1.00 75.3 0 0 320.78 338.79
  Q 316.52 338.46 312.51 339.57
  Q 303.45 341.63 294.59 338.62
  Q 291.93 337.71 289.64 337.72
  Q 261.48 337.79 233.47 337.74
  A 0.41 0.41 0.0 0 0 233.06 338.18
  C 233.83 348.64 236.63 360.64 237.65 368.87
  Q 238.82 378.28 239.65 387.72
  C 240.41 396.33 241.80 402.29 251.50 402.26
  C 266.57 402.22 281.82 401.86 296.87 402.43
  Q 299.38 402.53 302.06 402.21
  Z
  M 343.43 360.75
  L 372.81 360.75
  A 0.47 0.47 0.0 0 0 373.28 360.28
  L 373.28 352.97
  A 15.00 14.94 -0.0 0 0 358.28 338.03
  L 357.96 338.03
  A 15.00 14.94 0.0 0 0 342.96 352.97
  L 342.96 360.28
  A 0.47 0.47 0.0 0 0 343.43 360.75
  Z
  M 230.34 359.56
  C 229.05 352.80 220.89 349.64 214.94 349.61
  Q 171.68 349.41 128.44 349.56
  C 109.44 349.62 107.10 370.49 105.75 384.43
  A 0.52 0.51 -87.0 0 0 106.26 385.00
  L 233.02 385.00
  Q 233.60 385.00 233.56 384.42
  Q 232.68 371.83 230.34 359.56
  Z
  M 338.87 366.24
  C 331.47 367.92 331.22 372.30 329.15 379.89
  C 327.50 385.95 321.57 400.98 331.77 402.78
  L 343.08 402.74
  L 353.40 402.74
  L 364.38 402.73
  L 374.25 402.70
  C 386.73 403.51 390.64 402.04 388.21 388.69
  Q 386.86 381.30 385.34 373.93
  Q 384.09 367.90 378.17 366.35
  Q 375.99 365.77 369.90 366.01
  L 363.29 366.02
  L 354.43 366.02
  L 346.55 366.02
  L 338.87 366.24
  Z
  M 105.67 390.59
  C 106.19 397.20 111.67 402.49 118.50 402.49
  Q 169.49 402.53 220.47 402.49
  C 228.16 402.48 235.46 399.71 234.41 390.52
  Q 234.35 389.98 233.80 389.98
  L 106.21 390.01
  Q 105.62 390.01 105.67 390.59
  Z"
/>
<circle fill="#fd9ca8" cx="244.12" cy="242.03" r="4.95"/>
<circle fill="#fd9ca8" cx="305.84" cy="242.13" r="4.94"/>
<path fill="#fd9ca8" d="
  M 341.41 274.76
  Q 335.85 276.66 329.81 276.28
  C 328.70 272.49 327.21 268.18 330.47 265.48
  C 337.73 259.49 343.02 254.72 344.05 244.65
  A 0.47 0.47 0.0 0 1 344.97 244.55
  Q 345.32 245.65 346.42 245.51
  Q 346.99 245.44 346.98 244.87
  L 346.86 238.47
  A 0.37 0.37 0.0 0 1 347.53 238.25
  C 355.19 249.02 350.82 263.15 341.24 271.51
  Q 340.11 272.50 341.41 274.76
  Z"
/>
<path fill="#fd9ca8" d="
  M 281.76 240.01
  A 0.78 0.78 0.0 0 1 282.54 240.79
  L 282.54 241.80
  A 7.65 7.40 90.0 0 1 275.14 249.45
  L 274.94 249.45
  A 7.65 7.40 90.0 0 1 267.54 241.80
  L 267.54 240.79
  A 0.78 0.78 0.0 0 1 268.32 240.01
  L 281.76 240.01
  Z"
/>
<path fill="#fd9ca8" d="
  M 384.50 256.47
  L 384.23 251.07
  Q 393.47 249.17 398.87 255.57
  A 0.56 0.55 -20.0 0 1 398.44 256.48
  L 384.50 256.47
  Z"
/>
<path fill="#ffffff" d="
  M 384.23 251.07
  L 384.50 256.47
  L 380.36 256.42
  A 0.62 0.62 0.0 0 1 379.75 255.80
  L 379.75 251.71
  Q 379.75 251.03 380.43 251.04
  L 384.23 251.07
  Z"
/>
<path fill="#fb8a9c" d="
  M 453.22 326.94
  C 444.90 350.37 430.59 373.29 413.40 391.54
  Q 351.21 457.57 259.50 462.19
  C 187.32 465.82 117.33 432.71 73.84 375.35
  Q 74.48 374.91 75.46 374.99
  A 0.19 0.19 0.0 0 0 75.52 374.61
  L 74.89 374.49
  A 0.35 0.35 0.0 0 1 74.83 373.82
  C 76.65 373.06 77.70 372.72 79.15 371.11
  C 81.87 368.09 90.26 367.89 93.67 368.12
  C 99.09 368.49 101.64 361.14 102.56 356.90
  A 0.75 0.75 0.0 0 0 101.78 355.99
  Q 90.92 356.68 79.86 356.49
  C 74.04 356.38 71.26 354.76 74.39 348.45
  L 97.17 348.18
  L 113.93 348.10
  Q 103.49 357.87 101.48 372.30
  C 100.12 382.06 97.09 393.68 104.60 402.19
  C 108.93 407.10 113.96 407.70 120.96 407.71
  Q 172.94 407.81 224.94 407.71
  Q 232.21 407.69 237.26 401.44
  Q 237.60 401.02 237.90 401.47
  Q 241.91 407.57 250.43 407.64
  Q 274.97 407.85 299.50 407.72
  C 306.87 407.68 312.81 405.31 315.01 397.70
  C 319.63 381.69 323.43 365.08 327.16 349.02
  Q 327.28 348.50 327.81 348.50
  L 336.97 348.50
  Q 337.43 348.50 337.42 348.96
  L 337.18 360.59
  A 0.69 0.68 -6.7 0 1 336.66 361.24
  C 329.41 363.01 326.73 367.20 324.70 374.45
  C 322.37 382.75 314.45 407.53 331.26 407.63
  Q 356.87 407.77 382.50 407.74
  C 394.19 407.73 395.72 398.85 394.20 389.22
  Q 392.12 376.16 390.04 370.25
  Q 387.61 363.39 379.55 361.20
  A 0.65 0.65 0.0 0 1 379.08 360.60
  L 378.77 349.42
  A 0.89 0.88 -0.9 0 1 379.66 348.51
  Q 404.29 348.49 429.10 348.51
  C 432.05 348.51 434.37 347.45 433.05 344.03
  A 1.23 1.22 79.7 0 0 431.92 343.24
  L 414.27 342.92
  Q 414.00 342.91 414.10 342.66
  Q 415.50 339.13 415.63 333.32
  Q 415.90 321.07 415.56 308.83
  Q 415.46 305.34 414.32 301.95
  C 412.36 296.11 403.34 274.64 405.36 269.81
  C 406.93 266.07 407.40 264.00 406.82 259.96
  C 412.38 260.87 411.65 264.06 411.79 269.21
  Q 411.95 274.94 411.78 280.66
  C 411.73 282.65 412.72 284.60 411.89 286.95
  Q 411.68 287.52 412.22 287.80
  L 415.88 289.74
  Q 416.50 290.07 416.50 289.36
  L 416.50 288.77
  Q 416.50 288.25 416.91 288.56
  L 418.43 289.72
  A 0.63 0.63 0.0 0 1 418.69 290.21
  L 418.87 296.54
  Q 418.89 297.13 419.43 297.35
  C 421.66 298.27 422.06 300.93 422.78 302.98
  A 1.66 1.60 6.8 0 0 423.45 303.80
  Q 427.76 306.44 429.25 311.27
  A 3.08 3.05 -89.7 0 0 431.22 313.28
  C 434.96 314.49 437.69 315.40 442.11 315.78
  Q 448.59 316.33 453.75 320.50
  Q 454.19 320.85 453.94 321.36
  Q 452.33 324.71 453.22 326.94
  Z"
/>
<path fill="#fd9ca8" d="
  M 393.95 261.77
  Q 393.12 266.64 393.79 271.11
  Q 389.18 271.73 385.33 270.57
  L 385.27 262.30
  A 0.54 0.53 -0.5 0 1 385.81 261.76
  L 393.95 261.77
  Z"
/>
<path fill="#fb8a9c" d="
  M 393.95 261.77
  L 400.77 261.77
  Q 401.34 261.77 401.32 262.34
  Q 401.15 266.71 398.54 270.87
  Q 397.07 272.12 393.79 271.11
  Q 393.12 266.64 393.95 261.77
  Z"
/>
<path fill="#ffffff" d="
  M 189.30 271.10
  C 187.10 275.93 190.12 280.87 188.80 284.93
  Q 188.61 285.53 188.94 285.89
  A 0.65 0.65 0.0 0 1 188.46 286.99
  L 88.32 287.00
  L 94.06 267.60
  A 5.03 5.02 -81.7 0 1 98.89 264.00
  Q 140.16 264.01 182.39 263.98
  C 187.16 263.98 188.77 266.69 189.30 271.10
  Z
  M 179.4784 274.5595
  A 4.33 4.33 0.0 0 0 175.1334 270.2446
  L 154.8535 270.3154
  A 4.33 4.33 0.0 0 0 150.5386 274.6605
  L 150.5416 275.5005
  A 4.33 4.33 0.0 0 0 154.8866 279.8154
  L 175.1665 279.7446
  A 4.33 4.33 0.0 0 0 179.4814 275.3995
  L 179.4784 274.5595
  Z"
/>
<path fill="#fed5d5" d="
  M 256.56 275.56
  Q 253.27 275.01 251.40 278.14
  Q 250.90 275.69 249.05 275.06
  Q 248.56 274.89 248.19 275.26
  C 241.88 281.68 234.21 293.35 236.98 302.76
  A 0.47 0.47 0.0 0 1 236.62 303.36
  Q 230.72 304.56 226.98 309.83
  Q 218.24 299.94 223.11 288.39
  C 224.40 285.32 227.00 282.64 229.21 279.98
  Q 238.82 274.59 246.06 265.99
  Q 246.56 265.39 247.28 265.70
  L 255.50 269.30
  Q 255.93 269.48 255.98 269.95
  L 256.56 275.56
  Z"
/>
<path fill="#feb6b9" d="
  M 319.67 279.68
  Q 328.73 289.79 325.73 300.87
  L 315.81 295.14
  Q 314.58 284.24 305.23 281.92
  L 301.51 276.37
  A 1.76 1.76 0.0 0 0 299.06 275.90
  C 296.19 277.89 298.66 280.91 299.70 282.94
  Q 300.00 283.53 299.36 283.36
  Q 289.33 280.59 284.47 288.51
  C 282.26 292.13 283.29 296.15 282.24 300.14
  C 281.65 302.35 282.00 305.85 281.40 307.54
  Q 281.26 307.94 281.15 308.13
  A 0.55 0.55 0.0 0 1 280.17 308.07
  C 277.28 301.16 268.34 298.60 261.56 299.55
  Q 258.96 299.92 252.21 303.31
  A 0.58 0.55 -52.8 0 1 251.90 303.36
  L 242.78 302.26
  Q 242.38 302.22 242.27 301.83
  C 239.99 293.82 247.70 284.80 251.40 278.14
  Q 253.27 275.01 256.56 275.56
  C 260.96 286.79 272.07 291.24 282.89 286.64
  C 289.41 283.87 293.91 277.93 292.98 270.39
  A 0.74 0.73 -15.4 0 1 293.41 269.64
  L 302.34 265.71
  Q 302.80 265.51 303.12 265.90
  Q 310.34 274.63 319.67 279.68
  Z"
/>
<rect fill="#babed1" x="-14.47" y="-4.75" transform="translate(165.01,275.03) rotate(-0.2)" width="28.94" height="9.50" rx="4.33"/>
<path fill="#babed1" d="
  M 385.33 270.57
  Q 389.18 271.73 393.79 271.11
  Q 397.07 272.12 398.54 270.87
  Q 399.18 276.81 401.70 282.07
  L 382.06 281.98
  Q 385.03 276.26 385.33 270.57
  Z"
/>
<path fill="#fed5d5" d="
  M 189.30 271.10
  C 191.46 277.89 193.28 284.09 193.27 291.47
  Q 193.23 313.75 193.26 336.00
  C 193.27 346.09 185.09 343.79 178.43 343.75
  C 186.70 333.87 185.78 323.77 185.52 309.42
  C 185.44 304.90 186.73 300.53 187.19 295.84
  Q 187.25 295.25 186.66 295.25
  L 88.49 295.09
  L 88.32 287.00
  L 188.46 286.99
  A 0.65 0.65 0.0 0 0 188.94 285.89
  Q 188.61 285.53 188.80 284.93
  C 190.12 280.87 187.10 275.93 189.30 271.10
  Z"
/>
<path fill="#feb6b9" d="
  M 287.58 272.02
  C 286.28 286.45 262.78 286.11 261.37 271.36
  A 0.33 0.33 0.0 0 1 261.77 271.01
  Q 274.32 273.58 286.93 271.42
  A 0.56 0.56 0.0 0 1 287.58 272.02
  Z"
/>
<path fill="#fd9ca8" d="
  M 229.21 279.98
  C 227.00 282.64 224.40 285.32 223.11 288.39
  Q 218.24 299.94 226.98 309.83
  Q 224.57 314.29 225.57 318.97
  Q 226.00 320.94 228.81 326.00
  A 1.01 1.00 -45.9 0 1 228.82 326.95
  C 225.24 333.68 227.50 340.64 228.11 346.49
  Q 228.19 347.29 227.48 346.91
  C 218.93 342.28 209.10 343.54 197.53 343.76
  Q 196.96 343.77 197.10 343.22
  Q 198.22 338.92 198.23 337.44
  Q 198.27 313.37 198.25 289.30
  C 198.24 285.05 197.74 281.29 197.14 277.17
  A 0.96 0.95 -73.6 0 1 198.71 276.31
  C 206.77 283.32 219.65 282.97 229.21 279.98
  Z"
/>
<path fill="#fed5d5" d="
  M 315.81 295.14
  C 310.05 293.89 308.54 288.66 305.23 281.92
  Q 314.58 284.24 315.81 295.14
  Z"
/>
<path fill="#ffffff" d="
  M 382.06 281.98
  L 401.70 282.07
  Q 405.14 291.87 408.41 302.08
  Q 409.66 305.96 409.92 309.07
  Q 410.25 313.06 409.87 316.27
  Q 404.51 317.41 399.31 320.63
  C 395.48 323.01 392.61 323.55 388.46 322.96
  C 382.63 322.12 378.65 316.55 372.84 316.31
  C 372.93 311.17 372.60 306.97 374.45 302.04
  Q 378.24 291.91 382.06 281.98
  Z"
/>
<path fill="#ffcf75" d="
  M 313.31 300.65
  Q 319.51 307.03 317.19 312.12
  A 0.73 0.72 20.4 0 1 316.32 312.51
  Q 314.37 311.95 312.40 310.61
  C 309.83 308.87 295.17 298.35 291.51 298.53
  A 0.64 0.64 0.0 0 0 291.26 299.74
  C 293.83 301.00 297.13 302.82 295.73 306.52
  C 294.07 310.92 289.82 307.73 287.00 306.98
  Q 286.60 302.66 289.42 299.08
  A 0.87 0.86 -39.1 0 0 289.52 298.19
  Q 287.98 294.82 288.53 293.01
  C 291.23 284.09 299.42 289.04 303.48 293.78
  Q 307.78 298.79 313.31 300.65
  Z"
/>
<path fill="#fef0ee" d="
  M 88.49 295.09
  L 186.66 295.25
  Q 187.25 295.25 187.19 295.84
  C 186.73 300.53 185.44 304.90 185.52 309.42
  C 185.78 323.77 186.70 333.87 178.43 343.75
  Q 153.55 343.75 128.50 343.74
  Q 120.64 343.74 113.93 348.10
  L 97.17 348.18
  C 90.22 345.38 88.48 340.54 88.49 333.02
  Q 88.51 313.95 88.49 295.09
  Z
  M 141.1532 306.5142
  A 5.83 5.83 0.0 0 0 135.3028 300.7045
  L 103.4830 300.8156
  A 5.83 5.83 0.0 0 0 97.6734 306.6659
  L 97.7268 321.9658
  A 5.83 5.83 0.0 0 0 103.5772 327.7755
  L 135.3970 327.6644
  A 5.83 5.83 0.0 0 0 141.2066 321.8141
  L 141.1532 306.5142
  Z
  M 181.9453 305.8147
  A 5.04 5.04 0.0 0 0 176.8965 300.7835
  L 158.0165 300.8165
  A 5.04 5.04 0.0 0 0 152.9853 305.8653
  L 153.0147 322.7253
  A 5.04 5.04 0.0 0 0 158.0635 327.7565
  L 176.9435 327.7235
  A 5.04 5.04 0.0 0 0 181.9747 322.6747
  L 181.9453 305.8147
  Z"
/>
<path fill="#fcb664" d="
  M 313.31 300.65
  Q 321.03 303.23 325.92 306.87
  C 329.85 309.79 330.34 316.94 324.56 317.98
  A 0.75 0.75 0.0 0 0 323.98 318.52
  Q 323.36 320.95 323.71 322.03
  Q 325.66 328.10 322.17 333.31
  Q 321.90 333.72 321.41 333.68
  C 314.96 333.16 309.17 335.49 302.71 334.67
  Q 308.30 328.01 301.27 323.19
  Q 294.18 318.33 285.44 314.26
  Q 284.96 314.04 284.81 313.54
  Q 284.64 312.99 284.80 312.31
  Q 287.47 310.38 287.00 306.98
  C 289.82 307.73 294.07 310.92 295.73 306.52
  C 297.13 302.82 293.83 301.00 291.26 299.74
  A 0.64 0.64 0.0 0 1 291.51 298.53
  C 295.17 298.35 309.83 308.87 312.40 310.61
  Q 314.37 311.95 316.32 312.51
  A 0.73 0.72 20.4 0 0 317.19 312.12
  Q 319.51 307.03 313.31 300.65
  Z"
/>
<path fill="#babed1" d="
  M 141.2066 321.8141
  A 5.83 5.83 0.0 0 1 135.3970 327.6644
  L 103.5772 327.7755
  A 5.83 5.83 0.0 0 1 97.7268 321.9658
  L 97.6734 306.6659
  A 5.83 5.83 0.0 0 1 103.4830 300.8156
  L 135.3028 300.7045
  A 5.83 5.83 0.0 0 1 141.1532 306.5142
  L 141.2066 321.8141
  Z
  M 135.9864 306.2313
  A 0.67 0.67 0.0 0 0 135.3152 305.5625
  L 103.7352 305.6176
  A 0.67 0.67 0.0 0 0 103.0664 306.2887
  L 103.0936 321.8887
  A 0.67 0.67 0.0 0 0 103.7648 322.5575
  L 135.3448 322.5024
  A 0.67 0.67 0.0 0 0 136.0136 321.8313
  L 135.9864 306.2313
  Z"
/>
<path fill="#babed1" d="
  M 181.9747 322.6747
  A 5.04 5.04 0.0 0 1 176.9435 327.7235
  L 158.0635 327.7565
  A 5.04 5.04 0.0 0 1 153.0147 322.7253
  L 152.9853 305.8653
  A 5.04 5.04 0.0 0 1 158.0165 300.8165
  L 176.8965 300.7835
  A 5.04 5.04 0.0 0 1 181.9453 305.8147
  L 181.9747 322.6747
  Z
  M 177.1218 306.0901
  A 0.54 0.54 0.0 0 0 176.5846 305.5472
  L 158.5848 305.4530
  A 0.54 0.54 0.0 0 0 158.0420 305.9902
  L 157.9582 321.9899
  A 0.54 0.54 0.0 0 0 158.4954 322.5328
  L 176.4952 322.6270
  A 0.54 0.54 0.0 0 0 177.0380 322.0898
  L 177.1218 306.0901
  Z"
/>
<path fill="#fcb664" d="
  M 234.78 323.93
  C 237.20 322.70 239.91 323.75 242.06 323.44
  C 247.81 322.62 250.50 317.41 248.17 312.15
  Q 247.34 310.28 246.07 308.15
  L 252.51 309.15
  A 1.55 1.53 -53.5 0 0 253.41 309.01
  C 258.45 306.61 261.14 303.70 267.72 305.04
  Q 274.22 306.36 275.12 312.70
  A 1.50 1.47 56.1 0 1 274.94 313.67
  C 273.00 317.12 271.60 320.09 273.64 323.93
  A 1.41 1.40 57.9 0 1 273.23 325.73
  Q 270.46 327.73 269.83 331.10
  A 1.11 1.11 0.0 0 1 268.74 332.00
  L 233.47 332.00
  A 0.52 0.51 -77.2 0 1 233.01 331.26
  C 234.12 328.91 236.05 326.98 234.78 323.93
  Z"
/>
<rect fill="#fef0ee" x="-16.46" y="-8.47" transform="translate(119.54,314.06) rotate(-0.1)" width="32.92" height="16.94" rx="0.67"/>
<rect fill="#fef0ee" x="-9.54" y="-8.54" transform="translate(167.54,314.04) rotate(0.3)" width="19.08" height="17.08" rx="0.54"/>
<path fill="#ffcf75" d="
  M 246.07 308.15
  Q 247.34 310.28 248.17 312.15
  C 250.50 317.41 247.81 322.62 242.06 323.44
  C 239.91 323.75 237.20 322.70 234.78 323.93
  C 229.23 318.58 229.81 312.01 237.07 308.97
  Q 241.57 307.09 246.07 308.15
  Z"
/>
<path fill="#ffcf75" d="
  M 284.80 312.31
  Q 284.64 312.99 284.81 313.54
  Q 284.96 314.04 285.44 314.26
  Q 294.18 318.33 301.27 323.19
  Q 308.30 328.01 302.71 334.67
  C 293.48 333.85 286.30 326.82 279.11 321.73
  A 1.94 1.93 -64.6 0 1 278.36 319.61
  Q 279.91 314.15 284.80 312.31
  Z"
/>
<path fill="#babed1" d="
  M 409.87 316.27
  Q 410.44 332.52 409.68 337.92
  C 408.94 343.15 404.72 343.12 399.97 343.21
  Q 389.02 343.41 378.11 343.05
  Q 377.60 343.04 377.21 342.71
  C 374.19 340.23 372.73 337.79 372.72 333.61
  Q 372.71 324.89 372.84 316.31
  C 378.65 316.55 382.63 322.12 388.46 322.96
  C 392.61 323.55 395.48 323.01 399.31 320.63
  Q 404.51 317.41 409.87 316.27
  Z"
/>
<path fill="#fcb664" d="
  M 275.56 331.86
  Q 275.21 331.87 275.42 331.59
  L 277.74 328.52
  Q 278.11 328.04 278.67 328.27
  Q 281.07 329.27 282.97 331.09
  Q 283.65 331.74 282.71 331.76
  L 275.56 331.86
  Z"
/>
<path fill="#fd9ca8" d="
  M 312.51 339.57
  L 314.91 343.28
  A 1.20 1.16 -55.1 0 1 315.06 344.22
  Q 313.19 351.61 311.19 358.91
  C 310.18 362.60 310.56 366.56 307.86 370.50
  Q 308.58 363.87 309.01 357.23
  C 309.48 349.95 299.63 348.87 299.03 357.39
  Q 298.11 370.59 297.07 383.78
  C 296.69 388.66 300.44 391.37 305.10 388.80
  Q 305.29 394.64 302.36 398.59
  Q 300.90 400.56 302.06 402.21
  Q 299.38 402.53 296.87 402.43
  C 281.82 401.86 266.57 402.22 251.50 402.26
  C 241.80 402.29 240.41 396.33 239.65 387.72
  Q 238.82 378.28 237.65 368.87
  C 236.63 360.64 233.83 348.64 233.06 338.18
  A 0.41 0.41 0.0 0 1 233.47 337.74
  Q 261.48 337.79 289.64 337.72
  Q 291.93 337.71 294.59 338.62
  Q 303.45 341.63 312.51 339.57
  Z
  M 252.8886 355.8963
  A 4.68 4.68 0.0 0 0 247.9393 351.5021
  L 246.8811 351.5650
  A 4.68 4.68 0.0 0 0 242.4869 356.5143
  L 244.1914 385.2037
  A 4.68 4.68 0.0 0 0 249.1407 389.5979
  L 250.1989 389.5350
  A 4.68 4.68 0.0 0 0 254.5931 384.5857
  L 252.8886 355.8963
  Z
  M 271.3836 356.1662
  A 4.70 4.70 0.0 0 0 266.6428 351.5074
  L 265.8828 351.5140
  A 4.70 4.70 0.0 0 0 261.2240 356.2549
  L 261.4764 385.1738
  A 4.70 4.70 0.0 0 0 266.2172 389.8326
  L 266.9772 389.8260
  A 4.70 4.70 0.0 0 0 271.6360 385.0851
  L 271.3836 356.1662
  Z
  M 290.0084 356.4189
  A 4.78 4.78 0.0 0 0 285.3295 351.5398
  L 284.7896 351.5285
  A 4.78 4.78 0.0 0 0 279.9106 356.2074
  L 279.3116 384.8011
  A 4.78 4.78 0.0 0 0 283.9905 389.6802
  L 284.5304 389.6915
  A 4.78 4.78 0.0 0 0 289.4094 385.0126
  L 290.0084 356.4189
  Z"
/>
<path fill="#babed1" d="
  M 343.43 360.75
  A 0.47 0.47 0.0 0 1 342.96 360.28
  L 342.96 352.97
  A 15.00 14.94 -0.0 0 1 357.96 338.03
  L 358.28 338.03
  A 15.00 14.94 -0.0 0 1 373.28 352.97
  L 373.28 360.28
  A 0.47 0.47 0.0 0 1 372.81 360.75
  L 343.43 360.75
  Z"
/>
<path fill="#fb8a9c" d="
  M 302.06 402.21
  Q 300.90 400.56 302.36 398.59
  Q 305.29 394.64 305.10 388.80
  Q 307.92 380.47 307.86 370.50
  C 310.56 366.56 310.18 362.60 311.19 358.91
  Q 313.19 351.61 315.06 344.22
  A 1.20 1.16 -55.1 0 0 314.91 343.28
  L 312.51 339.57
  Q 316.52 338.46 320.78 338.79
  A 1.01 1.00 75.3 0 1 321.53 339.23
  C 323.61 342.41 322.39 346.83 321.31 351.01
  Q 315.62 373.03 309.78 395.00
  Q 308.04 401.55 302.06 402.21
  Z"
/>
<path fill="#babed1" d="
  M 214.94 349.61
  C 220.89 349.64 229.05 352.80 230.34 359.56
  Q 232.68 371.83 233.56 384.42
  Q 233.60 385.00 233.02 385.00
  L 106.26 385.00
  A 0.52 0.51 -87.0 0 1 105.75 384.43
  C 107.10 370.49 109.44 349.62 128.44 349.56
  Q 171.68 349.41 214.94 349.61
  Z
  M 135.3205 367.7995
  A 9.27 8.85 -2.6 0 0 125.6585 359.3791
  A 9.27 8.85 -2.6 0 0 116.7995 368.6405
  A 9.27 8.85 -2.6 0 0 126.4615 377.0609
  A 9.27 8.85 -2.6 0 0 135.3205 367.7995
  Z
  M 225.00 367.77
  A 6.98 6.98 0.0 0 0 218.02 360.79
  L 198.00 360.79
  A 6.98 6.98 0.0 0 0 191.02 367.77
  L 191.02 368.81
  A 6.98 6.98 0.0 0 0 198.00 375.79
  L 218.02 375.79
  A 6.98 6.98 0.0 0 0 225.00 368.81
  L 225.00 367.77
  Z"
/>
<rect fill="#ffffff" x="-5.21" y="-19.05" transform="translate(248.54,370.55) rotate(-3.4)" width="10.42" height="38.10" rx="4.68"/>
<rect fill="#ffffff" x="-5.08" y="-19.16" transform="translate(266.43,370.67) rotate(-0.5)" width="10.16" height="38.32" rx="4.70"/>
<rect fill="#ffffff" x="-5.05" y="-19.08" transform="translate(284.66,370.61) rotate(1.2)" width="10.10" height="38.16" rx="4.78"/>
<path fill="#ffffff" d="
  M 307.86 370.50
  Q 307.92 380.47 305.10 388.80
  C 300.44 391.37 296.69 388.66 297.07 383.78
  Q 298.11 370.59 299.03 357.39
  C 299.63 348.87 309.48 349.95 309.01 357.23
  Q 308.58 363.87 307.86 370.50
  Z"
/>
<path fill="#515777" d="
  M 135.3205 367.7995
  A 9.27 8.85 -2.6 0 1 126.4615 377.0609
  A 9.27 8.85 -2.6 0 1 116.7995 368.6405
  A 9.27 8.85 -2.6 0 1 125.6585 359.3791
  A 9.27 8.85 -2.6 0 1 135.3205 367.7995
  Z
  M 129.58 368.15
  A 3.52 3.52 0.0 0 0 126.06 364.63
  A 3.52 3.52 0.0 0 0 122.54 368.15
  A 3.52 3.52 0.0 0 0 126.06 371.67
  A 3.52 3.52 0.0 0 0 129.58 368.15
  Z"
/>
<path fill="#515777" d="
  M 225.00 368.81
  A 6.98 6.98 0.0 0 1 218.02 375.79
  L 198.00 375.79
  A 6.98 6.98 0.0 0 1 191.02 368.81
  L 191.02 367.77
  A 6.98 6.98 0.0 0 1 198.00 360.79
  L 218.02 360.79
  A 6.98 6.98 0.0 0 1 225.00 367.77
  L 225.00 368.81
  Z
  M 219.2189 367.6909
  A 2.19 2.19 0.0 0 0 217.0213 365.5086
  L 199.0214 365.5714
  A 2.19 2.19 0.0 0 0 196.8391 367.7691
  L 196.8411 368.3491
  A 2.19 2.19 0.0 0 0 199.0387 370.5314
  L 217.0386 370.4686
  A 2.19 2.19 0.0 0 0 219.2209 368.2709
  L 219.2189 367.6909
  Z"
/>
<circle fill="#fd9ca8" cx="126.06" cy="368.15" r="3.52"/>
<rect fill="#ffffff" x="-11.19" y="-2.48" transform="translate(208.03,368.02) rotate(-0.2)" width="22.38" height="4.96" rx="2.19"/>
<path fill="#fcb664" d="
  M 346.55 366.02
  L 343.08 402.74
  L 331.77 402.78
  L 338.87 366.24
  L 346.55 366.02
  Z"
/>
<path fill="#ffcf75" d="
  M 346.55 366.02
  L 354.43 366.02
  L 353.40 402.74
  L 343.08 402.74
  L 346.55 366.02
  Z"
/>
<path fill="#fcb664" d="
  M 354.43 366.02
  L 363.29 366.02
  L 364.38 402.73
  L 353.40 402.74
  L 354.43 366.02
  Z"
/>
<path fill="#ffcf75" d="
  M 363.29 366.02
  L 369.90 366.01
  L 374.25 402.70
  L 364.38 402.73
  L 363.29 366.02
  Z"
/>
<path fill="#fcb664" d="
  M 369.90 366.01
  Q 375.99 365.77 378.17 366.35
  Q 384.09 367.90 385.34 373.93
  Q 386.86 381.30 388.21 388.69
  C 390.64 402.04 386.73 403.51 374.25 402.70
  L 369.90 366.01
  Z"
/>
<path fill="#ffcf75" d="
  M 338.87 366.24
  L 331.77 402.78
  C 321.57 400.98 327.50 385.95 329.15 379.89
  C 331.22 372.30 331.47 367.92 338.87 366.24
  Z"
/>
<path fill="#ffffff" d="
  M 118.50 402.49
  C 111.67 402.49 106.19 397.20 105.67 390.59
  Q 105.62 390.01 106.21 390.01
  L 233.80 389.98
  Q 234.35 389.98 234.41 390.52
  C 235.46 399.71 228.16 402.48 220.47 402.49
  Q 169.49 402.53 118.50 402.49
  Z"
/>
</svg>
